<?xml version="1.0" encoding="UTF-8" standalone="no"?>
<!-- Created with Inkscape (http://www.inkscape.org/) -->

<svg
   xmlns:osb="http://www.openswatchbook.org/uri/2009/osb"
   xmlns:dc="http://purl.org/dc/elements/1.1/"
   xmlns:cc="http://creativecommons.org/ns#"
   xmlns:rdf="http://www.w3.org/1999/02/22-rdf-syntax-ns#"
   xmlns:svg="http://www.w3.org/2000/svg"
   xmlns="http://www.w3.org/2000/svg"
   xmlns:sodipodi="http://sodipodi.sourceforge.net/DTD/sodipodi-0.dtd"
   xmlns:inkscape="http://www.inkscape.org/namespaces/inkscape"
   width="239.90654mm"
   height="80.353851mm"
   viewBox="0 0 239.90653 80.353853"
   version="1.1"
   id="svg8"
   inkscape:version="0.92.5 (2060ec1f9f, 2020-04-08)"
   sodipodi:docname="Overview.svg">
  <defs
     id="defs2">
    <marker
       inkscape:stockid="Arrow1Lstart"
       orient="auto"
       refY="0"
       refX="0"
       id="marker9680"
       style="overflow:visible"
       inkscape:isstock="true">
      <path
         id="path9678"
         d="M 0,0 5,-5 -12.5,0 5,5 Z"
         style="fill:#000000;fill-opacity:1;fill-rule:evenodd;stroke:#000000;stroke-width:1.00000003pt;stroke-opacity:1"
         transform="matrix(0.8,0,0,0.8,10,0)"
         inkscape:connector-curvature="0" />
    </marker>
    <linearGradient
       id="linearGradient9021"
       osb:paint="solid">
      <stop
         style="stop-color:#000000;stop-opacity:1;"
         offset="0"
         id="stop9019" />
    </linearGradient>
    <marker
       inkscape:stockid="Arrow1Lstart"
       orient="auto"
       refY="0"
       refX="0"
       id="Arrow1Lstart"
       style="overflow:visible"
       inkscape:isstock="true">
      <path
         id="path4520"
         d="M 0,0 5,-5 -12.5,0 5,5 Z"
         style="fill:url(#meshgradient7337);fill-opacity:1;fill-rule:evenodd;stroke:#000000;stroke-width:1.00000003pt;stroke-opacity:1"
         transform="matrix(0.8,0,0,0.8,10,0)"
         inkscape:connector-curvature="0" />
    </marker>
    <style
       id="style5695">
      @font-face {
        font-family: &quot;Virgil&quot;;
        src: url(&quot;https://excalidraw.com/Virgil.woff2&quot;);
      }
      @font-face {
        font-family: &quot;Cascadia&quot;;
        src: url(&quot;https://excalidraw.com/Cascadia.woff2&quot;);
      }
    </style>
    <meshgradient
       inkscape:collect="always"
       id="meshgradient7337"
       gradientUnits="userSpaceOnUse"
       x="-2.9081161"
       y="68.131035">
      <meshrow
         id="meshrow7339">
        <meshpatch
           id="meshpatch7341">
          <stop
             path="c 8.50254,-8.50254  22.2879,-8.50254  30.7904,0"
             style="stop-color:#ffffff;stop-opacity:1"
             id="stop7343" />
          <stop
             path="c 8.50254,8.50254  8.50254,22.2879  0,30.7904"
             style="stop-color:#800080;stop-opacity:1"
             id="stop7345" />
          <stop
             path="c -8.50254,8.50254  -22.2879,8.50254  -30.7904,0"
             style="stop-color:#ffffff;stop-opacity:1"
             id="stop7347" />
          <stop
             path="c -8.50254,-8.50254  -8.50254,-22.2879  -5.32907e-15,-30.7904"
             style="stop-color:#800080;stop-opacity:1"
             id="stop7349" />
        </meshpatch>
      </meshrow>
    </meshgradient>
  </defs>
  <sodipodi:namedview
     id="base"
     pagecolor="#ffffff"
     bordercolor="#666666"
     borderopacity="1.0"
     inkscape:pageopacity="0.0"
     inkscape:pageshadow="2"
     inkscape:zoom="0.35"
     inkscape:cx="1406.3835"
     inkscape:cy="225.23876"
     inkscape:document-units="mm"
     inkscape:current-layer="layer1"
     showgrid="false"
     fit-margin-top="0"
     fit-margin-left="0"
     fit-margin-right="0"
     fit-margin-bottom="0"
     inkscape:window-width="1848"
     inkscape:window-height="1016"
     inkscape:window-x="72"
     inkscape:window-y="27"
     inkscape:window-maximized="1" />
  <metadata
     id="metadata5">
    <rdf:RDF>
      <cc:Work
         rdf:about="">
        <dc:format>image/svg+xml</dc:format>
        <dc:type
           rdf:resource="http://purl.org/dc/dcmitype/StillImage" />
        <dc:title></dc:title>
      </cc:Work>
    </rdf:RDF>
  </metadata>
  <g
     inkscape:label="Layer 1"
     inkscape:groupmode="layer"
     id="layer1"
     transform="translate(11.956175,-27.615656)">
    <g
       id="g10776">
      <path
         style="color:#000000;font-style:normal;font-variant:normal;font-weight:normal;font-stretch:normal;font-size:medium;line-height:normal;font-family:sans-serif;font-variant-ligatures:normal;font-variant-position:normal;font-variant-caps:normal;font-variant-numeric:normal;font-variant-alternates:normal;font-feature-settings:normal;text-indent:0;text-align:start;text-decoration:none;text-decoration-line:none;text-decoration-style:solid;text-decoration-color:#000000;letter-spacing:normal;word-spacing:normal;text-transform:none;writing-mode:lr-tb;direction:ltr;text-orientation:mixed;dominant-baseline:auto;baseline-shift:baseline;text-anchor:start;white-space:normal;shape-padding:0;clip-rule:nonzero;display:inline;overflow:visible;visibility:visible;opacity:0.9;isolation:auto;mix-blend-mode:normal;color-interpolation:sRGB;color-interpolation-filters:linearRGB;solid-color:#000000;solid-opacity:1;vector-effect:none;fill:#000000;fill-opacity:1;fill-rule:nonzero;stroke:none;stroke-width:0.52600002;stroke-linecap:butt;stroke-linejoin:miter;stroke-miterlimit:5.0999999;stroke-dasharray:none;stroke-dashoffset:0;stroke-opacity:1;paint-order:normal;color-rendering:auto;image-rendering:auto;shape-rendering:auto;text-rendering:auto;enable-background:accumulate"
         d="m 12.486328,61.490234 c -12.16653889,0 -22.0351561,9.868618 -22.0351561,22.035157 0,12.166539 9.86861721,22.035159 22.0351561,22.035159 12.166539,0 22.035156,-9.86862 22.035156,-22.035159 0,-12.166539 -9.868617,-22.035157 -22.035156,-22.035157 z m 0,0.527344 c 11.882268,0 21.509766,9.625545 21.509766,21.507813 0,11.882267 -9.627498,21.509769 -21.509766,21.509769 -11.88226738,0 -21.5078124,-9.627502 -21.5078124,-21.509769 0,-11.882268 9.62554502,-21.507813 21.5078124,-21.507813 z"
         id="path10"
         inkscape:connector-curvature="0" />
      <path
         inkscape:connector-curvature="0"
         style="fill:#000000;fill-opacity:1;fill-rule:evenodd;stroke:#000000;stroke-width:0.42080002pt;stroke-opacity:1"
         d="m 34.259197,88.786238 2.104,2.104 -2.104,-7.364001 -2.104,7.364001 z"
         id="path10782" />
      <path
         inkscape:connector-curvature="0"
         style="fill:#000000;fill-opacity:1;fill-rule:evenodd;stroke:#000000;stroke-width:0.42080002pt;stroke-opacity:1"
         d="m 7.2270889,105.29835 -2.1040001,2.104 7.3640002,-2.104 -7.3640002,-2.104 z"
         id="path10784" />
      <path
         inkscape:connector-curvature="0"
         style="fill:#000000;fill-opacity:1;fill-rule:evenodd;stroke:#000000;stroke-width:0.42080002pt;stroke-opacity:1"
         d="m -9.2850189,78.266237 -2.1040001,-2.104 2.1040001,7.364 2.1040001,-7.364 z"
         id="path10786" />
      <path
         inkscape:connector-curvature="0"
         style="fill:#000000;fill-opacity:1;fill-rule:evenodd;stroke:#000000;stroke-width:0.42080002pt;stroke-opacity:1"
         d="m 17.747089,61.754129 2.104,-2.104 -7.364,2.104 7.364,2.104001 z"
         id="path10788" />
    </g>
    <g
       id="g5838"
       transform="matrix(0.26458333,0,0,0.26458333,34.511294,25.103998)">
      <g
         id="g5701"
         transform="translate(10,208.1629)"
         style="stroke-linecap:round">
        <path
           id="path5699"
           d="M 0,0 C 187.25,0 374.51,0 614.58,0 M 0,0 c 239.41,0 478.82,0 614.58,0 m 0,0 c 0,10.3 0,20.59 0,42.5 m 0,-42.5 c 0,12.89 0,25.77 0,42.5 m 0,0 c -170.96,0 -341.91,0 -614.58,0 m 614.58,0 c -198.05,0 -396.09,0 -614.58,0 m 0,0 C 0,26.89 0,11.28 0,0 M 0,42.5 C 0,31.08 0,19.67 0,0"
           inkscape:connector-curvature="0"
           style="fill:none;stroke:#000000;stroke-width:1" />
      </g>
      <g
         id="g5707"
         style="stroke-linecap:round">
        <g
           id="g5705"
           transform="translate(133.59668,208.19321)">
          <path
             id="path5703"
             d="M 0,0 C 0.15,14.01 0.3,28.02 0.45,42.73 M 0,0 c 0.18,16.68 0.35,33.36 0.45,42.73"
             inkscape:connector-curvature="0"
             style="fill:none;stroke:#000000;stroke-width:1" />
        </g>
      </g>
      <g
         id="g5713"
         style="stroke-linecap:round">
        <g
           id="g5711"
           transform="translate(255.11183,208.19321)">
          <path
             id="path5709"
             d="M 0,0 C 0.14,13.23 0.28,26.46 0.45,42.73 M 0,0 c 0.1,9.74 0.21,19.49 0.45,42.73"
             inkscape:connector-curvature="0"
             style="fill:none;stroke:#000000;stroke-width:1" />
        </g>
      </g>
      <g
         id="g5719"
         style="stroke-linecap:round">
        <g
           id="g5717"
           transform="translate(378.82781,208.44488)">
          <path
             id="path5715"
             d="M 0,0 C 0.18,16.79 0.36,33.57 0.45,42.73 M 0,0 c 0.13,12.64 0.27,25.27 0.45,42.73"
             inkscape:connector-curvature="0"
             style="fill:none;stroke:#000000;stroke-width:1" />
        </g>
      </g>
      <g
         id="g5723"
         transform="translate(50.996522,219.95659)">
        <text
           id="text5721"
           direction="ltr"
           style="font-size:16px;font-family:Virgil, 'Segoe UI Emoji';direction:ltr;text-anchor:start;white-space:pre;fill:#000000"
           font-size="16px"
           y="14"
           x="0">Task1</text>
      </g>
      <g
         id="g5727"
         transform="translate(167.92076,219.9869)">
        <text
           id="text5725"
           direction="ltr"
           style="font-size:16px;font-family:Virgil, 'Segoe UI Emoji';direction:ltr;text-anchor:start;white-space:pre;fill:#000000"
           font-size="16px"
           y="14"
           x="0">Task4</text>
      </g>
      <g
         id="g5731"
         transform="translate(290.98137,219.38084)">
        <text
           id="text5729"
           direction="ltr"
           style="font-size:16px;font-family:Virgil, 'Segoe UI Emoji';direction:ltr;text-anchor:start;white-space:pre;fill:#000000"
           font-size="16px"
           y="14"
           x="0">Task2</text>
      </g>
      <g
         id="g5737"
         style="stroke-linecap:round">
        <g
           id="g5735"
           transform="translate(501.93955,208.49061)">
          <path
             id="path5733"
             d="M 0,0 C 0.15,14.45 0.31,28.9 0.45,42.73 M 0,0 c 0.17,15.67 0.33,31.33 0.45,42.73"
             inkscape:connector-curvature="0"
             style="fill:none;stroke:#000000;stroke-width:1" />
        </g>
      </g>
      <g
         id="g5741"
         transform="translate(414.09311,219.42657)">
        <text
           id="text5739"
           direction="ltr"
           style="font-size:16px;font-family:Virgil, 'Segoe UI Emoji';direction:ltr;text-anchor:start;white-space:pre;fill:#000000"
           font-size="16px"
           y="14"
           x="0">Task10</text>
      </g>
      <g
         id="g5745"
         transform="translate(558.78475,218.60257)">
        <text
           id="text5743"
           direction="ltr"
           style="font-size:16px;font-family:Virgil, 'Segoe UI Emoji';direction:ltr;text-anchor:start;white-space:pre;fill:#000000"
           font-size="16px"
           y="14"
           x="0">....</text>
      </g>
      <g
         id="g5757"
         style="stroke-linecap:round">
        <g
           id="g5749"
           transform="translate(451.18645,10)">
          <path
             id="path5747"
             d="M 0,0 C 0.76,65.16 1.52,130.33 2,171 M 0,0 c 0.44,37.45 0.88,74.91 2,171"
             inkscape:connector-curvature="0"
             style="fill:none;stroke:#000000;stroke-width:1" />
        </g>
        <g
           id="g5755"
           transform="translate(451.18645,10)">
          <path
             id="path5751"
             d="M 2,171 -4.5,157.48 8.18,157.33 2,171"
             inkscape:connector-curvature="0"
             style="fill:#000000;fill-rule:evenodd;stroke:none;stroke-width:0" />
          <path
             id="path5753"
             d="m 2,171 c -2.48,-5.15 -4.95,-10.3 -6.5,-13.52 M 2,171 c -1.42,-2.96 -2.85,-5.92 -6.5,-13.52 m 0,0 c 3.11,-0.04 6.22,-0.07 12.68,-0.15 m -12.68,0.15 c 4.19,-0.05 8.37,-0.1 12.68,-0.15 m 0,0 C 6.39,161.3 4.59,165.27 2,171 M 8.18,157.33 C 6.67,160.68 5.15,164.03 2,171 m 0,0 c 0,0 0,0 0,0 m 0,0 c 0,0 0,0 0,0"
             inkscape:connector-curvature="0"
             style="fill:none;stroke:#000000;stroke-width:1" />
        </g>
      </g>
      <g
         id="g5769"
         style="stroke-linecap:round">
        <g
           id="g5761"
           transform="translate(482.18645,57.5)">
          <path
             id="path5759"
             d="M 0,0 C 0.78,47.91 1.56,95.83 2,123 M 0,0 c 0.48,29.8 0.97,59.6 2,123"
             inkscape:connector-curvature="0"
             style="fill:none;stroke:#000000;stroke-width:1" />
        </g>
        <g
           id="g5767"
           transform="translate(482.18645,57.5)">
          <path
             id="path5763"
             d="M 2,123 -4.56,109.51 8.12,109.3 2,123"
             inkscape:connector-curvature="0"
             style="fill:#000000;fill-rule:evenodd;stroke:none;stroke-width:0" />
          <path
             id="path5765"
             d="m 2,123 c -2.56,-5.25 -5.11,-10.51 -6.56,-13.49 M 2,123 c -1.59,-3.27 -3.18,-6.54 -6.56,-13.49 m 0,0 c 3.84,-0.06 7.69,-0.12 12.68,-0.21 m -12.68,0.21 c 3.53,-0.06 7.05,-0.11 12.68,-0.21 m 0,0 C 6.15,113.72 4.17,118.13 2,123 M 8.12,109.3 C 5.87,114.33 3.62,119.36 2,123 m 0,0 c 0,0 0,0 0,0 m 0,0 c 0,0 0,0 0,0"
             inkscape:connector-curvature="0"
             style="fill:none;stroke:#000000;stroke-width:1" />
        </g>
      </g>
      <g
         id="g5781"
         style="stroke-linecap:round">
        <g
           id="g5773"
           transform="translate(520.18645,133.5)">
          <path
             id="path5771"
             d="M 0,0 C 0.78,19.13 1.56,38.26 2,49 M 0,0 c 0.47,11.44 0.93,22.88 2,49"
             inkscape:connector-curvature="0"
             style="fill:none;stroke:#000000;stroke-width:1" />
        </g>
        <g
           id="g5779"
           transform="translate(520.18645,133.5)">
          <path
             id="path5775"
             d="M 2,49 -4.89,35.68 7.78,35.16 2,49"
             inkscape:connector-curvature="0"
             style="fill:#000000;fill-rule:evenodd;stroke:none;stroke-width:0" />
          <path
             id="path5777"
             d="M 2,49 C -0.69,43.8 -3.38,38.6 -4.89,35.68 M 2,49 C 0.39,45.89 -1.22,42.78 -4.89,35.68 m 0,0 c 2.91,-0.12 5.82,-0.24 12.67,-0.52 m -12.67,0.52 c 4.76,-0.2 9.51,-0.39 12.67,-0.52 m 0,0 C 6.28,38.75 4.78,42.34 2,49 M 7.78,35.16 C 6.28,38.75 4.78,42.35 2,49 m 0,0 c 0,0 0,0 0,0 m 0,0 c 0,0 0,0 0,0"
             inkscape:connector-curvature="0"
             style="fill:none;stroke:#000000;stroke-width:1" />
        </g>
      </g>
      <g
         id="g5785"
         transform="translate(477.18645,12)">
        <text
           id="text5783"
           direction="ltr"
           style="font-size:16px;font-family:Cascadia, 'Segoe UI Emoji';direction:ltr;text-anchor:start;white-space:pre;fill:#000000"
           font-size="16px"
           y="15"
           x="0">timer.schedule(&lt;new-task&gt;, ...)</text>
      </g>
    </g>
    <text
       xml:space="preserve"
       style="font-style:normal;font-weight:normal;font-size:5.64444447px;line-height:1.25;font-family:sans-serif;letter-spacing:0px;word-spacing:0px;fill:#000000;fill-opacity:1;stroke:none;stroke-width:0.26458332"
       x="-1.4638591"
       y="85.037758"
       id="text7030"><tspan
         sodipodi:role="line"
         id="tspan7028"
         x="-1.4638591"
         y="85.037758"
         style="stroke-width:0.26458332">1 Thread</tspan><tspan
         sodipodi:role="line"
         x="-1.4638591"
         y="92.093315"
         style="stroke-width:0.26458332"
         id="tspan7032" /></text>
    <text
       xml:space="preserve"
       style="font-style:normal;font-weight:normal;font-size:5.64444447px;line-height:1.25;font-family:sans-serif;letter-spacing:0px;word-spacing:0px;fill:#000000;fill-opacity:1;stroke:none;stroke-width:0.26458332"
       x="167.45049"
       y="45.481869"
       id="text7036"><tspan
         sodipodi:role="line"
         id="tspan7034"
         x="167.45049"
         y="45.481869"
         style="font-size:4.93888903px;stroke-width:0.26458332">&quot;Clients&quot; submitting</tspan><tspan
         sodipodi:role="line"
         x="167.45049"
         y="52.537426"
         style="font-size:4.93888903px;stroke-width:0.26458332"
         id="tspan7038">tasks</tspan></text>
    <text
       xml:space="preserve"
       style="font-style:normal;font-weight:normal;font-size:5.64444447px;line-height:1.25;font-family:sans-serif;letter-spacing:0px;word-spacing:0px;fill:#000000;fill-opacity:1;stroke:none;stroke-width:0.26458332"
       x="82.458771"
       y="97.866692"
       id="text7042"><tspan
         sodipodi:role="line"
         id="tspan7040"
         x="82.458771"
         y="97.866692"
         style="stroke-width:0.26458332">Shared queue</tspan></text>
  </g>
</svg>
