<svg version="1.1" xmlns="http://www.w3.org/2000/svg" viewBox="0 0 1071.6883311807458 241.41452991453025" width="1071.6883311807458" height="241.41452991453025">
  <!-- svg-source:excalidraw -->
  
  <defs>
    <style>
      @font-face {
        font-family: "Virgil";
        src: url("https://excalidraw.com/Virgil.woff2");
      }
      @font-face {
        font-family: "Cascadia";
        src: url("https://excalidraw.com/Cascadia.woff2");
      }
    </style>
  </defs>
  <rect x="0" y="0" width="1071.6883311807458" height="241.41452991453025" fill="#ffffff"></rect><g stroke-linecap="round" transform="translate(10 114.24255952149429) rotate(0 514.5 33)"><path d="M0 0 C213.09 0, 426.17 0, 1029 0 M0 0 C379.12 0, 758.24 0, 1029 0 M1029 0 C1029 18.37, 1029 36.73, 1029 66 M1029 0 C1029 26.15, 1029 52.29, 1029 66 M1029 66 C700.24 66, 371.49 66, 0 66 M1029 66 C659.27 66, 289.54 66, 0 66 M0 66 C0 41.18, 0 16.36, 0 0 M0 66 C0 51.48, 0 36.97, 0 0" stroke="#000000" stroke-width="1" fill="none"></path></g><g stroke-linecap="round"><g transform="translate(117.02736092022315 116.89596080971683) rotate(0 0.29013240971289633 30.924338652836127)"><path d="M0 0 C0.1 10.31, 0.48 51.54, 0.58 61.85 M0 0 C0.1 10.31, 0.48 51.54, 0.58 61.85" stroke="#000000" stroke-width="1" fill="none"></path></g></g><g stroke-linecap="round"><g transform="translate(285.7098675902871 118.31822086865816) rotate(0 0.29013240971289633 30.924338652836127)"><path d="M0 0 C0.1 10.31, 0.48 51.54, 0.58 61.85 M0 0 C0.1 10.31, 0.48 51.54, 0.58 61.85" stroke="#000000" stroke-width="1" fill="none"></path></g></g><g stroke-linecap="round"><g transform="translate(424.7098675902871 116.31822086865816) rotate(0 -0.4502401583207529 31.19010710121131)"><path d="M0.16 0.28 C0.32 10.61, 0.11 52.6, 0.32 63 M-1.22 -0.62 C-1.18 9.93, -1.14 51.26, -0.76 61.49" stroke="#000000" stroke-width="1" fill="none"></path></g></g><g stroke-linecap="round"><g transform="translate(662.7098675902871 118.31822086865816) rotate(0 0.29013240971289633 30.924338652836127)"><path d="M0 0 C0.13 14.2, 0.27 28.41, 0.58 61.85 M0 0 C0.12 13.26, 0.25 26.52, 0.58 61.85" stroke="#000000" stroke-width="1" fill="none"></path></g></g><g transform="translate(123.33333333333326 134.35367063260543) rotate(0 21.5 -6)" stroke="none" fill="#e67700"><path d="M -0.38,-1.65 Q -0.38,-1.65 3.36,-2.46 7.11,-3.27 11.55,-4.46 15.99,-5.64 20.46,-6.99 24.93,-8.34 28.91,-9.22 32.89,-10.09 35.64,-11.00 38.39,-11.91 40.47,-12.60 42.56,-13.29 42.78,-13.33 43.00,-13.37 43.21,-13.33 43.43,-13.29 43.63,-13.19 43.82,-13.09 43.98,-12.92 44.13,-12.76 44.22,-12.56 44.32,-12.36 44.34,-12.14 44.36,-11.92 44.32,-11.70 44.27,-11.49 44.15,-11.30 44.04,-11.11 43.87,-10.96 43.70,-10.82 43.49,-10.74 43.29,-10.66 43.07,-10.64 42.85,-10.63 42.63,-10.69 42.42,-10.75 42.24,-10.88 42.05,-11.00 41.92,-11.18 41.78,-11.35 41.71,-11.56 41.64,-11.77 41.64,-12.00 41.64,-12.22 41.71,-12.43 41.78,-12.64 41.92,-12.81 42.05,-12.99 42.24,-13.11 42.42,-13.24 42.63,-13.30 42.85,-13.36 43.07,-13.35 43.29,-13.33 43.50,-13.25 43.70,-13.17 43.87,-13.02 44.04,-12.88 44.15,-12.69 44.27,-12.50 44.32,-12.28 44.36,-12.07 44.34,-11.85 44.31,-11.63 44.22,-11.43 44.13,-11.23 43.98,-11.06 43.82,-10.90 43.63,-10.80 43.43,-10.70 43.43,-10.70 43.43,-10.70 41.35,-9.99 39.28,-9.28 36.40,-8.29 33.51,-7.31 29.66,-6.43 25.80,-5.55 21.30,-4.13 16.80,-2.71 12.31,-1.44 7.83,-0.17 4.10,0.74 0.38,1.65 0.17,1.67 -0.02,1.69 -0.22,1.67 -0.43,1.64 -0.62,1.56 -0.81,1.49 -0.97,1.37 -1.14,1.25 -1.27,1.09 -1.41,0.94 -1.50,0.76 -1.59,0.57 -1.64,0.37 -1.68,0.17 -1.68,-0.02 -1.68,-0.22 -1.63,-0.42 -1.57,-0.62 -1.48,-0.80 -1.38,-0.98 -1.24,-1.13 -1.10,-1.28 -0.93,-1.40 -0.76,-1.51 -0.57,-1.58 -0.38,-1.65 -0.38,-1.65 L -0.38,-1.65 Z"></path></g><g transform="translate(125 145.5758928548276) rotate(0 67.33333333333337 -1.6666666666666572)" stroke="none" fill="#e67700"><path d="M -0.23,15.12 Q -0.23,15.12 3.24,14.62 6.72,14.13 12.57,12.37 18.41,10.61 26.45,8.80 34.49,6.98 46.32,4.11 58.14,1.25 71.08,-2.59 84.02,-6.43 95.00,-9.64 105.98,-12.86 113.60,-15.28 121.23,-17.69 125.00,-18.72 128.77,-19.76 131.54,-20.52 134.31,-21.27 134.52,-21.30 134.74,-21.32 134.95,-21.27 135.16,-21.23 135.34,-21.12 135.52,-21.00 135.66,-20.84 135.80,-20.68 135.88,-20.48 135.96,-20.28 135.97,-20.06 135.98,-19.85 135.92,-19.64 135.86,-19.43 135.74,-19.26 135.62,-19.08 135.45,-18.95 135.28,-18.82 135.08,-18.75 134.87,-18.68 134.66,-18.69 134.44,-18.69 134.24,-18.75 134.04,-18.82 133.87,-18.95 133.70,-19.08 133.58,-19.26 133.46,-19.44 133.40,-19.65 133.34,-19.85 133.35,-20.07 133.37,-20.28 133.45,-20.48 133.53,-20.68 133.67,-20.85 133.81,-21.01 133.99,-21.12 134.17,-21.23 134.38,-21.27 134.59,-21.32 134.81,-21.30 135.02,-21.27 135.21,-21.18 135.41,-21.09 135.56,-20.94 135.72,-20.80 135.82,-20.61 135.92,-20.42 135.95,-20.20 135.99,-19.99 135.95,-19.78 135.92,-19.57 135.82,-19.38 135.72,-19.19 135.56,-19.04 135.40,-18.89 135.21,-18.80 135.01,-18.72 135.01,-18.72 135.01,-18.72 132.25,-17.95 129.48,-17.19 125.76,-16.16 122.04,-15.14 114.39,-12.70 106.74,-10.27 95.77,-7.04 84.80,-3.81 71.80,0.05 58.80,3.93 46.96,6.83 35.12,9.73 27.18,11.55 19.25,13.38 13.21,15.23 7.17,17.08 3.70,17.65 0.23,18.21 0.04,18.21 -0.14,18.22 -0.32,18.18 -0.51,18.14 -0.67,18.06 -0.84,17.97 -0.99,17.85 -1.13,17.73 -1.24,17.58 -1.36,17.43 -1.43,17.25 -1.50,17.08 -1.53,16.89 -1.56,16.71 -1.54,16.52 -1.52,16.33 -1.46,16.15 -1.40,15.98 -1.30,15.82 -1.19,15.66 -1.06,15.53 -0.92,15.40 -0.76,15.31 -0.59,15.22 -0.41,15.17 -0.23,15.12 -0.23,15.12 L -0.23,15.12 Z"></path></g><g transform="translate(141 172.2425595214943) rotate(0 57.5 -16.5)" stroke="none" fill="#e67700"><path d="M -0.37,-1.51 Q -0.37,-1.51 1.92,-2.05 4.23,-2.59 6.91,-3.38 9.58,-4.17 13.11,-4.80 16.64,-5.44 20.68,-6.27 24.72,-7.10 30.17,-8.31 35.63,-9.52 41.92,-11.46 48.22,-13.39 57.80,-16.52 67.39,-19.64 75.24,-21.84 83.08,-24.04 89.30,-25.55 95.52,-27.06 98.46,-27.70 101.39,-28.34 103.24,-28.68 105.10,-29.02 106.16,-29.25 107.22,-29.49 108.24,-30.11 109.27,-30.73 110.59,-31.55 111.91,-32.37 112.70,-33.39 113.49,-34.40 113.76,-34.60 114.02,-34.81 114.34,-34.91 114.65,-35.02 114.98,-35.02 115.32,-35.03 115.63,-34.92 115.95,-34.82 116.21,-34.62 116.48,-34.42 116.67,-34.14 116.86,-33.87 116.95,-33.55 117.04,-33.23 117.02,-32.90 117.01,-32.56 116.88,-32.25 116.76,-31.94 116.55,-31.69 116.33,-31.44 116.05,-31.26 115.77,-31.09 115.44,-31.02 115.12,-30.94 114.79,-30.98 114.46,-31.01 114.15,-31.15 113.85,-31.29 113.61,-31.51 113.37,-31.74 113.21,-32.03 113.05,-32.33 112.99,-32.66 112.94,-32.98 112.99,-33.31 113.04,-33.64 113.20,-33.94 113.35,-34.23 113.59,-34.46 113.83,-34.69 114.13,-34.83 114.43,-34.97 114.76,-35.01 115.10,-35.05 115.42,-34.98 115.75,-34.91 116.03,-34.74 116.32,-34.57 116.53,-34.32 116.75,-34.06 116.88,-33.76 117.00,-33.45 117.02,-33.12 117.04,-32.78 116.95,-32.46 116.87,-32.14 116.68,-31.87 116.50,-31.59 116.50,-31.59 116.50,-31.59 115.19,-30.36 113.88,-29.13 112.36,-28.28 110.84,-27.42 108.18,-26.79 105.52,-26.17 103.74,-25.96 101.96,-25.76 99.05,-25.12 96.15,-24.48 89.97,-22.97 83.80,-21.47 76.01,-19.28 68.22,-17.09 58.62,-13.95 49.01,-10.81 42.62,-8.84 36.22,-6.86 30.75,-5.63 25.29,-4.39 21.22,-3.53 17.15,-2.67 13.79,-2.04 10.42,-1.40 7.69,-0.55 4.96,0.29 2.67,0.90 0.37,1.51 0.19,1.53 0.00,1.56 -0.18,1.54 -0.36,1.51 -0.54,1.45 -0.72,1.38 -0.87,1.27 -1.03,1.17 -1.15,1.03 -1.28,0.89 -1.37,0.72 -1.45,0.55 -1.50,0.37 -1.55,0.19 -1.55,0.00 -1.55,-0.18 -1.50,-0.36 -1.46,-0.54 -1.37,-0.71 -1.28,-0.88 -1.16,-1.02 -1.03,-1.16 -0.88,-1.27 -0.73,-1.38 -0.55,-1.44 -0.37,-1.51 -0.37,-1.51 L -0.37,-1.51 Z"></path></g><g transform="translate(199 175.2425595214943) rotate(0 35.5 -12)" stroke="none" fill="#e67700"><path d="M -0.69,-1.39 Q -0.69,-1.39 2.76,-3.09 6.23,-4.78 10.09,-6.10 13.95,-7.43 18.98,-9.39 24.01,-11.36 28.21,-12.78 32.40,-14.20 35.90,-15.37 39.40,-16.54 42.30,-17.61 45.21,-18.67 48.80,-19.71 52.38,-20.76 56.50,-21.77 60.62,-22.79 63.51,-23.51 66.40,-24.22 68.54,-24.75 70.68,-25.28 70.89,-25.30 71.10,-25.31 71.31,-25.26 71.52,-25.21 71.70,-25.10 71.88,-24.98 72.01,-24.81 72.15,-24.65 72.22,-24.45 72.29,-24.24 72.30,-24.03 72.31,-23.82 72.24,-23.61 72.18,-23.41 72.06,-23.23 71.93,-23.06 71.76,-22.93 71.58,-22.81 71.38,-22.75 71.17,-22.68 70.96,-22.69 70.75,-22.70 70.54,-22.77 70.34,-22.84 70.18,-22.98 70.01,-23.11 69.89,-23.29 69.78,-23.47 69.73,-23.68 69.68,-23.89 69.69,-24.10 69.71,-24.31 69.80,-24.51 69.88,-24.71 70.02,-24.87 70.17,-25.03 70.35,-25.13 70.54,-25.24 70.75,-25.28 70.96,-25.32 71.17,-25.29 71.38,-25.26 71.58,-25.16 71.77,-25.07 71.92,-24.92 72.07,-24.77 72.17,-24.57 72.26,-24.38 72.29,-24.17 72.32,-23.96 72.28,-23.75 72.24,-23.54 72.13,-23.35 72.03,-23.17 71.87,-23.02 71.71,-22.88 71.51,-22.80 71.31,-22.71 71.31,-22.71 71.31,-22.71 69.18,-22.18 67.04,-21.65 64.15,-20.92 61.27,-20.20 57.20,-19.19 53.13,-18.18 49.64,-17.16 46.14,-16.14 43.21,-15.05 40.27,-13.96 36.78,-12.77 33.29,-11.58 29.17,-10.16 25.05,-8.74 19.97,-6.72 14.90,-4.70 11.23,-3.40 7.56,-2.11 4.13,-0.35 0.69,1.39 0.52,1.46 0.34,1.52 0.15,1.54 -0.03,1.56 -0.21,1.53 -0.40,1.50 -0.57,1.43 -0.75,1.36 -0.90,1.25 -1.05,1.14 -1.18,1.00 -1.30,0.86 -1.38,0.69 -1.47,0.52 -1.51,0.34 -1.55,0.15 -1.55,-0.03 -1.54,-0.21 -1.49,-0.40 -1.44,-0.58 -1.35,-0.74 -1.26,-0.91 -1.14,-1.05 -1.01,-1.18 -0.85,-1.29 -0.69,-1.39 -0.69,-1.39 L -0.69,-1.39 Z"></path></g><g transform="translate(153 139.1314484103832) rotate(0 26.166666666666742 -8)" stroke="none" fill="#e67700"><path d="M -0.41,-1.72 Q -0.41,-1.72 1.99,-2.23 4.41,-2.75 7.31,-3.78 10.21,-4.82 14.13,-6.13 18.04,-7.43 22.82,-8.57 27.59,-9.71 32.14,-11.31 36.69,-12.90 41.09,-14.17 45.50,-15.44 48.69,-16.49 51.88,-17.53 52.14,-17.56 52.39,-17.59 52.65,-17.54 52.90,-17.49 53.12,-17.35 53.35,-17.22 53.52,-17.03 53.69,-16.84 53.78,-16.60 53.88,-16.36 53.90,-16.10 53.92,-15.84 53.85,-15.59 53.79,-15.34 53.64,-15.13 53.50,-14.91 53.30,-14.75 53.09,-14.59 52.85,-14.51 52.61,-14.42 52.35,-14.42 52.09,-14.42 51.84,-14.50 51.60,-14.58 51.39,-14.73 51.18,-14.88 51.04,-15.09 50.89,-15.31 50.82,-15.55 50.74,-15.80 50.75,-16.06 50.77,-16.32 50.86,-16.56 50.95,-16.80 51.12,-17.00 51.28,-17.20 51.50,-17.33 51.72,-17.47 51.97,-17.53 52.22,-17.59 52.48,-17.56 52.74,-17.54 52.97,-17.43 53.21,-17.33 53.40,-17.15 53.59,-16.98 53.71,-16.75 53.83,-16.52 53.88,-16.27 53.92,-16.01 53.89,-15.76 53.85,-15.50 53.73,-15.27 53.61,-15.04 53.43,-14.86 53.24,-14.68 53.01,-14.57 52.77,-14.46 52.77,-14.46 52.77,-14.46 49.52,-13.63 46.27,-12.79 41.95,-11.52 37.63,-10.25 32.95,-8.58 28.27,-6.91 23.64,-5.76 19.01,-4.62 15.15,-3.26 11.30,-1.90 8.24,-0.72 5.18,0.45 2.79,1.08 0.41,1.72 0.20,1.74 -0.01,1.77 -0.22,1.74 -0.43,1.71 -0.63,1.63 -0.83,1.56 -1.00,1.43 -1.18,1.31 -1.32,1.15 -1.46,0.99 -1.56,0.80 -1.65,0.61 -1.70,0.40 -1.75,0.20 -1.75,-0.01 -1.75,-0.22 -1.70,-0.43 -1.65,-0.63 -1.55,-0.82 -1.45,-1.01 -1.30,-1.17 -1.16,-1.33 -0.98,-1.45 -0.81,-1.57 -0.61,-1.64 -0.41,-1.72 -0.41,-1.72 L -0.41,-1.72 Z"></path></g><g transform="translate(241 171.2425595214943) rotate(0 21 -9.5)" stroke="none" fill="#e67700"><path d="M -0.35,-1.75 Q -0.35,-1.75 2.53,-2.26 5.42,-2.77 8.68,-3.26 11.94,-3.75 15.13,-5.31 18.33,-6.88 21.50,-8.43 24.67,-9.97 27.71,-11.75 30.74,-13.52 33.53,-14.88 36.33,-16.24 38.66,-18.25 41.00,-20.26 41.23,-20.38 41.45,-20.51 41.71,-20.56 41.97,-20.60 42.22,-20.57 42.48,-20.53 42.71,-20.41 42.94,-20.29 43.13,-20.11 43.31,-19.92 43.42,-19.69 43.54,-19.45 43.57,-19.20 43.60,-18.94 43.55,-18.68 43.50,-18.43 43.37,-18.20 43.24,-17.98 43.04,-17.80 42.85,-17.63 42.61,-17.53 42.37,-17.43 42.11,-17.41 41.85,-17.39 41.60,-17.46 41.35,-17.52 41.13,-17.67 40.91,-17.81 40.75,-18.01 40.59,-18.22 40.50,-18.46 40.41,-18.71 40.41,-18.97 40.40,-19.23 40.48,-19.47 40.56,-19.72 40.71,-19.93 40.87,-20.14 41.08,-20.29 41.29,-20.44 41.54,-20.52 41.79,-20.59 42.05,-20.58 42.31,-20.57 42.56,-20.48 42.80,-20.39 43.00,-20.22 43.20,-20.06 43.34,-19.84 43.48,-19.62 43.54,-19.36 43.60,-19.11 43.58,-18.85 43.55,-18.59 43.45,-18.36 43.34,-18.12 43.17,-17.92 42.99,-17.73 42.99,-17.73 42.99,-17.73 40.27,-15.75 37.56,-13.76 34.87,-12.43 32.18,-11.09 29.07,-9.24 25.96,-7.38 22.80,-5.78 19.65,-4.19 16.07,-2.43 12.49,-0.67 9.28,-0.09 6.07,0.47 3.21,1.11 0.35,1.75 0.13,1.77 -0.07,1.78 -0.29,1.75 -0.50,1.71 -0.70,1.63 -0.90,1.54 -1.07,1.41 -1.24,1.28 -1.38,1.11 -1.51,0.95 -1.60,0.75 -1.70,0.56 -1.74,0.34 -1.78,0.13 -1.77,-0.07 -1.76,-0.29 -1.70,-0.50 -1.64,-0.70 -1.53,-0.89 -1.42,-1.08 -1.27,-1.23 -1.12,-1.39 -0.94,-1.50 -0.76,-1.62 -0.55,-1.68 -0.35,-1.75 -0.35,-1.75 L -0.35,-1.75 Z"></path></g><g transform="translate(112 197.2425595214943) rotate(0 7.5 12.5)"><text x="0" y="18" font-family="Virgil, Segoe UI Emoji" font-size="20px" fill="#000000" text-anchor="start" style="white-space: pre;" direction="ltr">0</text></g><g transform="translate(267 195.2425595214943) rotate(0 19.5 12.5)"><text x="0" y="18" font-family="Virgil, Segoe UI Emoji" font-size="20px" fill="#000000" text-anchor="start" style="white-space: pre;" direction="ltr">30s</text></g><g transform="translate(407.5 192.7425595214943) rotate(0 19 12.5)"><text x="0" y="18" font-family="Virgil, Segoe UI Emoji" font-size="20px" fill="#000000" text-anchor="start" style="white-space: pre;" direction="ltr">50s</text></g><g transform="translate(646 192.7425595214943) rotate(0 19 12.5)"><text x="0" y="18" font-family="Virgil, Segoe UI Emoji" font-size="20px" fill="#000000" text-anchor="start" style="white-space: pre;" direction="ltr">90s</text></g><g stroke-linecap="round"><g transform="translate(804.5397164038391 117.00865106464136) rotate(0 -0.0130178327331123 30.59898554243145)"><path d="M0.25 -0.29 C0.31 10.01, 1.1 52.5, 1.05 62.68 M-1.08 -1.49 C-1.19 8.4, 0.36 50.49, 0.35 61" stroke="#000000" stroke-width="1" fill="none"></path></g></g><g transform="translate(788.8950662048564 191.9547288479124) rotate(0 18 12.5)"><text x="0" y="18" font-family="Virgil, Segoe UI Emoji" font-size="20px" fill="#000000" text-anchor="start" style="white-space: pre;" direction="ltr">110s</text></g><g transform="translate(431.89492753623153 133.45995082584204) rotate(0 11.875 -6.25)" stroke="none" fill="#e67700"><path d="M -0.90,-1.80 Q -0.90,-1.80 0.52,-2.54 1.95,-3.27 3.73,-3.95 5.51,-4.63 7.65,-5.52 9.79,-6.42 11.75,-7.47 13.71,-8.52 16.44,-9.71 19.17,-10.90 20.91,-12.41 22.64,-13.92 22.90,-14.06 23.15,-14.20 23.44,-14.25 23.73,-14.30 24.02,-14.25 24.30,-14.21 24.56,-14.07 24.82,-13.94 25.02,-13.73 25.23,-13.52 25.35,-13.26 25.48,-12.99 25.51,-12.70 25.54,-12.41 25.48,-12.13 25.42,-11.84 25.28,-11.59 25.13,-11.34 24.91,-11.15 24.69,-10.96 24.42,-10.85 24.15,-10.74 23.86,-10.72 23.57,-10.70 23.29,-10.78 23.00,-10.85 22.76,-11.01 22.52,-11.18 22.34,-11.41 22.16,-11.64 22.07,-11.91 21.97,-12.19 21.97,-12.48 21.96,-12.77 22.06,-13.05 22.15,-13.32 22.32,-13.56 22.49,-13.79 22.73,-13.96 22.97,-14.12 23.25,-14.20 23.53,-14.28 23.82,-14.27 24.12,-14.26 24.39,-14.15 24.66,-14.05 24.88,-13.86 25.11,-13.67 25.26,-13.43 25.41,-13.18 25.48,-12.89 25.54,-12.61 25.51,-12.32 25.48,-12.03 25.36,-11.76 25.25,-11.50 25.05,-11.28 24.85,-11.07 24.85,-11.07 24.85,-11.07 22.68,-9.55 20.50,-8.03 17.94,-6.81 15.39,-5.59 13.36,-4.35 11.33,-3.11 9.16,-2.00 6.98,-0.89 5.39,-0.24 3.79,0.40 2.34,1.10 0.90,1.80 0.67,1.88 0.44,1.96 0.20,1.99 -0.03,2.01 -0.28,1.98 -0.52,1.94 -0.74,1.85 -0.97,1.76 -1.17,1.62 -1.36,1.48 -1.52,1.29 -1.68,1.11 -1.79,0.89 -1.90,0.67 -1.95,0.44 -2.00,0.20 -2.00,-0.03 -1.99,-0.28 -1.93,-0.51 -1.87,-0.75 -1.75,-0.96 -1.63,-1.17 -1.47,-1.35 -1.30,-1.53 -1.10,-1.67 -0.90,-1.80 -0.90,-1.80 L -0.90,-1.80 Z"></path></g><g transform="translate(430.228260869565 153.45995082584204) rotate(0 40 -15.625)" stroke="none" fill="#e67700"><path d="M -0.96,-1.28 Q -0.96,-1.28 0.45,-2.39 1.87,-3.49 5.15,-5.07 8.43,-6.64 13.02,-8.71 17.62,-10.77 22.06,-13.06 26.49,-15.34 32.77,-17.79 39.06,-20.23 45.73,-21.99 52.40,-23.75 58.41,-25.55 64.43,-27.36 68.82,-28.49 73.20,-29.63 74.94,-30.44 76.68,-31.26 78.01,-31.97 79.34,-32.69 79.59,-32.75 79.84,-32.82 80.09,-32.80 80.35,-32.79 80.58,-32.69 80.82,-32.60 81.02,-32.43 81.21,-32.26 81.34,-32.04 81.47,-31.82 81.52,-31.57 81.58,-31.32 81.55,-31.06 81.52,-30.81 81.41,-30.58 81.30,-30.35 81.12,-30.16 80.94,-29.98 80.72,-29.86 80.49,-29.74 80.24,-29.70 79.98,-29.66 79.73,-29.70 79.48,-29.75 79.25,-29.87 79.03,-29.99 78.85,-30.18 78.68,-30.37 78.57,-30.60 78.47,-30.83 78.44,-31.09 78.41,-31.34 78.47,-31.59 78.53,-31.84 78.66,-32.06 78.80,-32.28 78.99,-32.44 79.19,-32.61 79.43,-32.70 79.67,-32.79 79.92,-32.81 80.18,-32.82 80.42,-32.75 80.67,-32.68 80.88,-32.53 81.09,-32.39 81.25,-32.18 81.40,-31.98 81.48,-31.73 81.56,-31.49 81.56,-31.23 81.56,-30.98 81.47,-30.73 81.39,-30.49 81.23,-30.29 81.08,-30.09 80.86,-29.94 80.65,-29.80 80.65,-29.80 80.65,-29.80 79.24,-29.27 77.83,-28.74 75.86,-27.88 73.89,-27.01 69.55,-25.88 65.22,-24.74 59.16,-22.91 53.11,-21.07 46.60,-19.33 40.09,-17.59 33.96,-15.18 27.83,-12.77 23.35,-10.40 18.88,-8.04 14.35,-5.92 9.82,-3.81 6.84,-2.31 3.87,-0.81 2.42,0.23 0.96,1.28 0.79,1.38 0.63,1.48 0.44,1.53 0.25,1.59 0.06,1.59 -0.13,1.60 -0.32,1.56 -0.51,1.52 -0.68,1.44 -0.86,1.36 -1.01,1.23 -1.16,1.11 -1.27,0.95 -1.39,0.80 -1.47,0.62 -1.54,0.44 -1.57,0.25 -1.60,0.06 -1.59,-0.13 -1.57,-0.32 -1.51,-0.50 -1.45,-0.69 -1.35,-0.85 -1.24,-1.02 -1.10,-1.15 -0.96,-1.28 -0.96,-1.28 L -0.96,-1.28 Z"></path></g><g transform="translate(437.728260869565 169.70995082584204) rotate(0 51.25 -18.75)" stroke="none" fill="#e67700"><path d="M -0.41,-1.64 Q -0.41,-1.64 2.47,-2.31 5.36,-2.98 9.09,-3.96 12.82,-4.95 17.95,-6.77 23.09,-8.60 30.67,-11.53 38.26,-14.46 49.40,-18.58 60.55,-22.70 69.94,-26.59 79.32,-30.48 85.49,-32.86 91.66,-35.24 94.67,-36.26 97.68,-37.27 99.19,-37.48 100.70,-37.68 101.92,-36.79 103.14,-35.91 103.15,-34.05 103.17,-32.20 103.07,-31.90 102.98,-31.60 102.79,-31.35 102.60,-31.10 102.34,-30.92 102.08,-30.74 101.78,-30.65 101.48,-30.56 101.16,-30.57 100.85,-30.59 100.55,-30.70 100.26,-30.81 100.02,-31.02 99.77,-31.22 99.61,-31.49 99.44,-31.75 99.37,-32.06 99.30,-32.37 99.33,-32.68 99.36,-33.00 99.49,-33.28 99.62,-33.57 99.83,-33.80 100.05,-34.03 100.33,-34.18 100.60,-34.33 100.91,-34.39 101.22,-34.44 101.54,-34.40 101.85,-34.35 102.13,-34.20 102.41,-34.06 102.63,-33.83 102.85,-33.61 102.98,-33.32 103.12,-33.04 103.15,-32.72 103.19,-32.41 103.13,-32.10 103.06,-31.79 102.90,-31.52 102.74,-31.25 102.51,-31.04 102.27,-30.84 101.98,-30.72 101.68,-30.60 101.37,-30.58 101.06,-30.56 100.75,-30.64 100.45,-30.72 100.18,-30.89 99.92,-31.07 99.73,-31.32 99.53,-31.56 99.43,-31.86 99.33,-32.16 99.32,-32.47 99.32,-32.79 99.32,-32.79 99.32,-32.79 98.92,-33.76 98.52,-34.72 95.58,-33.72 92.64,-32.71 86.50,-30.33 80.37,-27.95 70.95,-24.02 61.52,-20.09 50.40,-15.95 39.29,-11.81 31.68,-8.83 24.08,-5.85 18.85,-3.93 13.62,-2.02 9.88,-0.95 6.13,0.11 3.27,0.87 0.41,1.64 0.20,1.67 0.00,1.70 -0.19,1.67 -0.40,1.65 -0.59,1.58 -0.78,1.50 -0.95,1.39 -1.12,1.27 -1.25,1.12 -1.39,0.97 -1.49,0.78 -1.58,0.60 -1.63,0.40 -1.68,0.21 -1.68,0.00 -1.68,-0.19 -1.64,-0.39 -1.59,-0.59 -1.49,-0.77 -1.40,-0.96 -1.26,-1.11 -1.13,-1.26 -0.96,-1.38 -0.79,-1.50 -0.60,-1.57 -0.41,-1.64 -0.41,-1.64 L -0.41,-1.64 Z"></path></g><g transform="translate(481.478260869565 172.20995082584204) rotate(0 64.375 -26.25)" stroke="none" fill="#e67700"><path d="M -0.56,-1.45 Q -0.56,-1.45 4.12,-3.22 8.80,-4.98 13.30,-6.80 17.79,-8.61 23.68,-10.82 29.57,-13.03 36.40,-15.41 43.23,-17.78 50.39,-20.92 57.55,-24.06 64.56,-27.19 71.57,-30.33 77.79,-33.10 84.01,-35.87 88.80,-38.12 93.59,-40.36 97.06,-42.04 100.53,-43.71 103.89,-44.81 107.24,-45.92 109.42,-46.39 111.60,-46.86 113.11,-47.47 114.63,-48.08 116.46,-48.66 118.29,-49.23 119.92,-49.88 121.56,-50.53 123.36,-51.47 125.17,-52.41 126.52,-53.23 127.88,-54.06 128.15,-54.15 128.42,-54.25 128.71,-54.26 129.00,-54.26 129.27,-54.18 129.55,-54.09 129.78,-53.92 130.02,-53.75 130.18,-53.51 130.35,-53.28 130.43,-53.00 130.52,-52.72 130.51,-52.44 130.50,-52.15 130.40,-51.88 130.29,-51.61 130.11,-51.38 129.93,-51.16 129.68,-51.00 129.44,-50.85 129.16,-50.78 128.88,-50.71 128.59,-50.74 128.30,-50.76 128.04,-50.88 127.77,-51.00 127.56,-51.19 127.34,-51.38 127.20,-51.64 127.06,-51.89 127.01,-52.17 126.96,-52.46 127.00,-52.74 127.04,-53.03 127.17,-53.29 127.30,-53.55 127.51,-53.75 127.71,-53.95 127.97,-54.08 128.23,-54.21 128.52,-54.24 128.81,-54.28 129.09,-54.22 129.37,-54.17 129.62,-54.02 129.87,-53.88 130.07,-53.66 130.26,-53.45 130.37,-53.18 130.48,-52.91 130.50,-52.63 130.53,-52.34 130.45,-52.06 130.38,-51.78 130.22,-51.54 130.07,-51.29 129.84,-51.11 129.61,-50.93 129.61,-50.93 129.61,-50.93 128.20,-50.22 126.79,-49.50 124.85,-48.35 122.91,-47.21 120.81,-46.34 118.71,-45.46 117.15,-45.37 115.59,-45.27 113.87,-44.78 112.16,-44.28 110.11,-43.84 108.07,-43.40 104.87,-42.36 101.68,-41.32 98.20,-39.64 94.72,-37.95 89.91,-35.69 85.10,-33.42 78.89,-30.64 72.68,-27.87 65.66,-24.71 58.64,-21.56 51.39,-18.37 44.14,-15.17 37.36,-12.78 30.57,-10.40 24.73,-8.17 18.89,-5.94 14.38,-4.06 9.88,-2.19 5.22,-0.37 0.56,1.45 0.37,1.50 0.19,1.54 0.00,1.55 -0.18,1.55 -0.36,1.50 -0.54,1.46 -0.71,1.37 -0.88,1.28 -1.02,1.16 -1.16,1.04 -1.27,0.88 -1.37,0.73 -1.44,0.55 -1.51,0.38 -1.53,0.19 -1.56,0.00 -1.54,-0.17 -1.51,-0.36 -1.45,-0.54 -1.38,-0.71 -1.28,-0.87 -1.17,-1.03 -1.03,-1.15 -0.89,-1.28 -0.72,-1.36 -0.56,-1.45 -0.56,-1.45 L -0.56,-1.45 Z"></path></g><g transform="translate(525.228260869565 174.70995082584204) rotate(0 61.25 -18.75)" stroke="none" fill="#e67700"><path d="M -0.31,-1.55 Q -0.31,-1.55 1.47,-1.94 3.26,-2.32 6.82,-3.49 10.37,-4.65 14.02,-6.20 17.68,-7.74 23.66,-9.51 29.63,-11.28 37.24,-12.74 44.84,-14.21 55.64,-15.54 66.43,-16.88 73.12,-18.15 79.80,-19.43 82.96,-20.31 86.12,-21.20 88.63,-21.59 91.13,-21.98 92.26,-22.86 93.40,-23.73 95.28,-24.26 97.17,-24.78 98.68,-25.03 100.18,-25.29 101.56,-25.44 102.94,-25.59 103.90,-26.19 104.86,-26.80 105.80,-27.37 106.74,-27.94 108.25,-29.03 109.76,-30.11 111.35,-31.54 112.95,-32.97 114.01,-33.62 115.08,-34.26 116.11,-35.23 117.14,-36.20 119.03,-38.05 120.93,-39.90 121.35,-40.09 121.78,-40.27 122.24,-40.31 122.70,-40.36 123.15,-40.25 123.60,-40.14 124.00,-39.89 124.39,-39.65 124.69,-39.29 124.98,-38.93 125.14,-38.50 125.31,-38.06 125.32,-37.60 125.34,-37.13 125.21,-36.69 125.08,-36.24 124.81,-35.86 124.54,-35.49 124.17,-35.21 123.79,-34.94 123.35,-34.80 122.91,-34.66 122.44,-34.66 121.98,-34.67 121.54,-34.83 121.11,-34.99 120.74,-35.27 120.38,-35.56 120.12,-35.95 119.87,-36.34 119.75,-36.79 119.64,-37.24 119.67,-37.70 119.71,-38.16 119.88,-38.59 120.06,-39.02 120.37,-39.37 120.68,-39.71 121.08,-39.95 121.48,-40.18 121.94,-40.27 122.39,-40.36 122.85,-40.30 123.31,-40.24 123.73,-40.04 124.15,-39.84 124.48,-39.51 124.81,-39.19 125.02,-38.78 125.23,-38.36 125.30,-37.90 125.36,-37.44 125.28,-36.99 125.20,-36.53 124.97,-36.12 124.75,-35.72 124.40,-35.40 124.06,-35.09 124.06,-35.09 124.06,-35.09 121.72,-32.93 119.37,-30.77 117.90,-29.95 116.43,-29.14 115.31,-28.08 114.19,-27.03 112.36,-25.91 110.54,-24.79 109.22,-24.16 107.91,-23.53 106.61,-22.64 105.31,-21.75 104.22,-21.73 103.13,-21.70 101.86,-21.72 100.58,-21.73 99.23,-21.66 97.88,-21.60 96.42,-21.38 94.96,-21.15 93.29,-20.26 91.63,-19.37 89.24,-18.99 86.85,-18.61 83.58,-17.68 80.31,-16.75 73.54,-15.45 66.78,-14.14 56.08,-12.79 45.38,-11.45 37.92,-9.98 30.46,-8.52 24.66,-6.76 18.86,-5.01 15.11,-3.36 11.36,-1.70 7.64,-0.40 3.91,0.89 2.11,1.22 0.31,1.55 0.12,1.56 -0.07,1.58 -0.25,1.55 -0.44,1.52 -0.62,1.44 -0.79,1.37 -0.95,1.25 -1.10,1.13 -1.22,0.99 -1.34,0.84 -1.42,0.66 -1.50,0.49 -1.54,0.30 -1.58,0.12 -1.57,-0.06 -1.56,-0.26 -1.51,-0.44 -1.45,-0.62 -1.36,-0.79 -1.26,-0.95 -1.13,-1.09 -0.99,-1.23 -0.83,-1.33 -0.67,-1.43 -0.49,-1.49 -0.31,-1.55 -0.31,-1.55 L -0.31,-1.55 Z"></path></g><g transform="translate(601.478260869565 172.20995082584204) rotate(0 26.875 -6.875)" stroke="none" fill="#e67700"><path d="M -0.41,-1.64 Q -0.41,-1.64 3.91,-2.67 8.23,-3.70 13.32,-4.84 18.41,-5.98 22.81,-6.47 27.21,-6.96 30.80,-7.50 34.40,-8.05 37.60,-9.32 40.80,-10.59 43.31,-11.50 45.83,-12.42 47.98,-13.17 50.13,-13.91 51.69,-14.55 53.24,-15.18 53.48,-15.22 53.73,-15.26 53.97,-15.23 54.21,-15.19 54.43,-15.08 54.65,-14.96 54.82,-14.79 54.99,-14.61 55.10,-14.39 55.20,-14.17 55.23,-13.93 55.26,-13.68 55.21,-13.44 55.16,-13.20 55.04,-12.99 54.91,-12.78 54.73,-12.62 54.54,-12.45 54.32,-12.36 54.09,-12.27 53.84,-12.25 53.60,-12.23 53.36,-12.30 53.12,-12.36 52.92,-12.49 52.71,-12.63 52.56,-12.82 52.41,-13.02 52.33,-13.25 52.25,-13.48 52.25,-13.73 52.24,-13.97 52.32,-14.21 52.39,-14.44 52.54,-14.64 52.69,-14.83 52.89,-14.97 53.09,-15.11 53.33,-15.18 53.56,-15.25 53.81,-15.24 54.05,-15.23 54.28,-15.14 54.51,-15.06 54.70,-14.90 54.89,-14.74 55.02,-14.53 55.15,-14.32 55.20,-14.08 55.26,-13.85 55.24,-13.60 55.21,-13.36 55.11,-13.13 55.01,-12.91 54.85,-12.73 54.68,-12.55 54.46,-12.43 54.25,-12.31 54.25,-12.31 54.25,-12.31 52.64,-11.83 51.03,-11.36 48.90,-10.60 46.78,-9.85 44.30,-8.92 41.82,-8.00 38.34,-6.62 34.86,-5.25 31.20,-4.65 27.54,-4.05 23.32,-3.54 19.10,-3.03 14.05,-1.82 9.01,-0.61 4.71,0.51 0.41,1.64 0.20,1.67 0.00,1.69 -0.19,1.67 -0.40,1.64 -0.59,1.57 -0.78,1.50 -0.95,1.38 -1.12,1.27 -1.25,1.12 -1.39,0.96 -1.48,0.78 -1.58,0.60 -1.63,0.40 -1.68,0.20 -1.68,0.00 -1.68,-0.19 -1.63,-0.39 -1.58,-0.59 -1.49,-0.77 -1.39,-0.95 -1.26,-1.11 -1.12,-1.26 -0.96,-1.38 -0.79,-1.49 -0.60,-1.57 -0.41,-1.64 -0.41,-1.64 L -0.41,-1.64 Z"></path></g><g transform="translate(572.728260869565 152.20995082584204) rotate(0 33.75 -16.875)" stroke="none" fill="#e67700"><path d="M -1.00,-1.25 Q -1.00,-1.25 0.82,-2.65 2.64,-4.06 5.67,-5.79 8.69,-7.52 14.66,-10.40 20.63,-13.28 25.65,-15.91 30.66,-18.55 36.78,-21.48 42.90,-24.40 48.77,-26.74 54.64,-29.07 58.15,-30.75 61.66,-32.44 64.29,-33.69 66.92,-34.95 67.12,-35.01 67.33,-35.07 67.55,-35.06 67.76,-35.05 67.97,-34.98 68.17,-34.90 68.33,-34.76 68.50,-34.62 68.61,-34.44 68.73,-34.26 68.78,-34.05 68.83,-33.84 68.81,-33.62 68.79,-33.41 68.70,-33.21 68.61,-33.01 68.46,-32.85 68.32,-32.69 68.13,-32.59 67.94,-32.49 67.73,-32.45 67.51,-32.41 67.30,-32.44 67.09,-32.47 66.89,-32.57 66.70,-32.67 66.55,-32.83 66.40,-32.98 66.31,-33.17 66.21,-33.37 66.19,-33.58 66.16,-33.80 66.20,-34.01 66.25,-34.22 66.36,-34.41 66.47,-34.60 66.63,-34.74 66.79,-34.88 66.99,-34.96 67.19,-35.05 67.41,-35.06 67.62,-35.07 67.83,-35.02 68.04,-34.96 68.22,-34.85 68.40,-34.73 68.53,-34.56 68.67,-34.39 68.74,-34.18 68.81,-33.98 68.81,-33.76 68.82,-33.55 68.75,-33.34 68.68,-33.14 68.56,-32.96 68.43,-32.79 68.25,-32.66 68.07,-32.54 68.07,-32.54 68.07,-32.54 65.45,-31.28 62.82,-30.01 59.23,-28.28 55.64,-26.55 49.86,-24.24 44.09,-21.93 38.02,-19.01 31.96,-16.08 26.92,-13.40 21.88,-10.72 16.02,-7.85 10.16,-4.98 7.35,-3.33 4.54,-1.68 2.77,-0.21 1.00,1.25 0.83,1.35 0.67,1.45 0.48,1.51 0.30,1.57 0.11,1.58 -0.08,1.59 -0.27,1.56 -0.46,1.53 -0.63,1.45 -0.81,1.37 -0.96,1.26 -1.12,1.14 -1.24,0.99 -1.36,0.84 -1.44,0.66 -1.52,0.49 -1.56,0.30 -1.59,0.11 -1.58,-0.07 -1.57,-0.27 -1.52,-0.45 -1.46,-0.64 -1.36,-0.80 -1.27,-0.97 -1.13,-1.11 -1.00,-1.25 -1.00,-1.25 L -1.00,-1.25 Z"></path></g><g transform="translate(810.3026755852839 133.42093187377958) rotate(0 11.875 -6.25)" stroke="none" fill="#e67700"><path d="M -0.89,-1.79 Q -0.89,-1.79 0.52,-2.53 1.95,-3.27 3.73,-3.95 5.51,-4.63 7.65,-5.52 9.79,-6.42 11.75,-7.46 13.71,-8.51 16.44,-9.71 19.17,-10.90 20.56,-12.12 21.96,-13.35 22.21,-13.48 22.46,-13.62 22.74,-13.67 23.02,-13.72 23.30,-13.67 23.59,-13.63 23.84,-13.50 24.10,-13.37 24.29,-13.16 24.49,-12.95 24.62,-12.70 24.74,-12.44 24.77,-12.15 24.81,-11.87 24.75,-11.59 24.69,-11.31 24.54,-11.06 24.40,-10.82 24.18,-10.63 23.97,-10.44 23.70,-10.33 23.44,-10.22 23.15,-10.21 22.86,-10.19 22.59,-10.26 22.31,-10.34 22.07,-10.49 21.83,-10.65 21.66,-10.88 21.48,-11.10 21.39,-11.37 21.30,-11.64 21.29,-11.93 21.29,-12.22 21.38,-12.49 21.47,-12.76 21.64,-12.99 21.81,-13.22 22.05,-13.38 22.28,-13.55 22.56,-13.62 22.83,-13.70 23.12,-13.69 23.40,-13.68 23.67,-13.57 23.94,-13.47 24.16,-13.29 24.38,-13.11 24.53,-12.86 24.68,-12.62 24.74,-12.34 24.80,-12.06 24.78,-11.77 24.75,-11.49 24.63,-11.23 24.51,-10.97 24.32,-10.76 24.12,-10.55 24.12,-10.55 24.12,-10.55 22.31,-9.29 20.50,-8.03 17.94,-6.81 15.38,-5.59 13.36,-4.35 11.33,-3.11 9.15,-2.00 6.98,-0.90 5.38,-0.25 3.79,0.39 2.34,1.09 0.89,1.79 0.67,1.88 0.44,1.96 0.20,1.98 -0.03,2.01 -0.27,1.97 -0.51,1.94 -0.74,1.85 -0.97,1.76 -1.16,1.62 -1.36,1.47 -1.52,1.29 -1.67,1.11 -1.78,0.89 -1.89,0.67 -1.94,0.43 -2.00,0.20 -1.99,-0.03 -1.99,-0.28 -1.92,-0.51 -1.86,-0.75 -1.75,-0.96 -1.63,-1.17 -1.46,-1.35 -1.30,-1.53 -1.10,-1.66 -0.89,-1.79 -0.89,-1.79 L -0.89,-1.79 Z"></path></g><g transform="translate(811.45652173913 153.6773421301898) rotate(0 40 -15.625)" stroke="none" fill="#e67700"><path d="M -0.96,-1.28 Q -0.96,-1.28 0.45,-2.39 1.87,-3.49 5.15,-5.07 8.43,-6.64 13.02,-8.71 17.62,-10.77 22.06,-13.06 26.49,-15.34 32.77,-17.79 39.06,-20.23 45.73,-21.99 52.40,-23.75 58.41,-25.55 64.43,-27.36 68.82,-28.49 73.20,-29.63 75.69,-30.90 78.17,-32.17 78.42,-32.24 78.67,-32.31 78.93,-32.29 79.19,-32.27 79.42,-32.18 79.66,-32.08 79.86,-31.91 80.06,-31.74 80.19,-31.52 80.32,-31.30 80.37,-31.04 80.43,-30.79 80.40,-30.53 80.37,-30.28 80.26,-30.04 80.15,-29.81 79.97,-29.62 79.79,-29.44 79.56,-29.32 79.33,-29.20 79.07,-29.16 78.82,-29.12 78.56,-29.16 78.31,-29.21 78.08,-29.33 77.85,-29.45 77.68,-29.64 77.50,-29.83 77.40,-30.07 77.29,-30.30 77.26,-30.56 77.24,-30.81 77.29,-31.07 77.35,-31.32 77.49,-31.54 77.62,-31.76 77.82,-31.93 78.02,-32.09 78.26,-32.18 78.50,-32.28 78.76,-32.29 79.02,-32.30 79.26,-32.23 79.51,-32.16 79.72,-32.01 79.94,-31.87 80.09,-31.66 80.25,-31.45 80.33,-31.21 80.41,-30.96 80.41,-30.70 80.40,-30.45 80.32,-30.20 80.24,-29.96 80.08,-29.75 79.92,-29.55 79.70,-29.41 79.49,-29.26 79.49,-29.26 79.49,-29.26 76.69,-28.14 73.89,-27.01 69.55,-25.88 65.22,-24.74 59.16,-22.91 53.11,-21.07 46.60,-19.33 40.09,-17.59 33.96,-15.18 27.83,-12.77 23.35,-10.40 18.88,-8.04 14.35,-5.92 9.82,-3.81 6.84,-2.31 3.87,-0.81 2.42,0.23 0.96,1.28 0.79,1.38 0.63,1.48 0.44,1.53 0.25,1.59 0.06,1.59 -0.13,1.60 -0.32,1.56 -0.51,1.52 -0.68,1.44 -0.86,1.36 -1.01,1.23 -1.16,1.11 -1.27,0.95 -1.39,0.80 -1.47,0.62 -1.54,0.44 -1.57,0.25 -1.60,0.06 -1.59,-0.13 -1.57,-0.32 -1.51,-0.50 -1.45,-0.69 -1.35,-0.85 -1.24,-1.02 -1.10,-1.15 -0.96,-1.28 -0.96,-1.28 L -0.96,-1.28 Z"></path></g><g transform="translate(818.95652173913 169.9273421301898) rotate(0 51.25 -18.75)" stroke="none" fill="#e67700"><path d="M -0.41,-1.64 Q -0.41,-1.64 2.47,-2.31 5.36,-2.98 9.09,-3.96 12.82,-4.95 17.95,-6.77 23.09,-8.60 30.67,-11.53 38.26,-14.46 49.40,-18.58 60.55,-22.70 69.94,-26.59 79.32,-30.48 85.49,-32.86 91.66,-35.24 94.67,-36.26 97.68,-37.27 99.19,-37.48 100.70,-37.68 101.86,-35.23 103.03,-32.77 102.94,-32.51 102.86,-32.25 102.69,-32.02 102.52,-31.80 102.30,-31.64 102.07,-31.48 101.80,-31.40 101.53,-31.33 101.25,-31.34 100.98,-31.35 100.72,-31.45 100.46,-31.55 100.24,-31.73 100.03,-31.91 99.88,-32.14 99.74,-32.38 99.67,-32.65 99.61,-32.92 99.64,-33.20 99.66,-33.48 99.78,-33.73 99.89,-33.98 100.08,-34.19 100.27,-34.39 100.52,-34.53 100.76,-34.66 101.03,-34.71 101.31,-34.75 101.58,-34.71 101.86,-34.67 102.11,-34.54 102.35,-34.42 102.55,-34.22 102.74,-34.02 102.86,-33.76 102.98,-33.51 103.01,-33.24 103.05,-32.96 102.99,-32.69 102.93,-32.42 102.79,-32.18 102.65,-31.94 102.44,-31.75 102.23,-31.57 101.97,-31.46 101.72,-31.36 101.44,-31.34 101.16,-31.32 100.89,-31.39 100.62,-31.47 100.39,-31.62 100.16,-31.77 99.99,-31.99 99.82,-32.21 99.72,-32.48 99.63,-32.74 99.63,-33.02 99.63,-33.29 99.63,-33.29 99.63,-33.29 99.07,-34.01 98.52,-34.72 95.58,-33.72 92.64,-32.71 86.50,-30.33 80.37,-27.95 70.95,-24.02 61.52,-20.09 50.40,-15.95 39.29,-11.81 31.68,-8.83 24.08,-5.85 18.85,-3.93 13.62,-2.02 9.88,-0.95 6.13,0.11 3.27,0.87 0.41,1.64 0.20,1.67 0.00,1.70 -0.19,1.67 -0.40,1.65 -0.59,1.58 -0.78,1.50 -0.95,1.39 -1.12,1.27 -1.25,1.12 -1.39,0.97 -1.49,0.78 -1.58,0.60 -1.63,0.40 -1.68,0.21 -1.68,0.00 -1.68,-0.19 -1.64,-0.39 -1.59,-0.59 -1.49,-0.77 -1.40,-0.96 -1.26,-1.11 -1.13,-1.26 -0.96,-1.38 -0.79,-1.50 -0.60,-1.57 -0.41,-1.64 -0.41,-1.64 L -0.41,-1.64 Z"></path></g><g transform="translate(862.70652173913 172.4273421301898) rotate(0 64.375 -26.25)" stroke="none" fill="#e67700"><path d="M -0.56,-1.45 Q -0.56,-1.45 4.12,-3.22 8.80,-4.98 13.30,-6.80 17.79,-8.61 23.68,-10.82 29.57,-13.03 36.40,-15.41 43.23,-17.78 50.39,-20.92 57.55,-24.06 64.56,-27.19 71.57,-30.33 77.79,-33.10 84.01,-35.87 88.80,-38.12 93.59,-40.36 97.06,-42.04 100.53,-43.71 103.89,-44.81 107.24,-45.92 109.42,-46.39 111.60,-46.86 113.11,-47.47 114.63,-48.08 116.46,-48.66 118.29,-49.23 119.92,-49.88 121.56,-50.53 124.08,-52.05 126.60,-53.57 126.91,-53.68 127.21,-53.79 127.53,-53.80 127.85,-53.80 128.16,-53.71 128.46,-53.61 128.72,-53.42 128.98,-53.23 129.17,-52.97 129.35,-52.71 129.44,-52.40 129.54,-52.10 129.53,-51.77 129.51,-51.45 129.40,-51.15 129.29,-50.85 129.09,-50.60 128.88,-50.35 128.61,-50.18 128.34,-50.01 128.03,-49.94 127.72,-49.86 127.40,-49.89 127.08,-49.92 126.78,-50.05 126.49,-50.18 126.25,-50.39 126.01,-50.61 125.86,-50.89 125.70,-51.17 125.64,-51.48 125.59,-51.80 125.63,-52.12 125.68,-52.44 125.82,-52.72 125.97,-53.01 126.19,-53.23 126.42,-53.46 126.71,-53.60 127.00,-53.74 127.32,-53.78 127.64,-53.82 127.95,-53.76 128.27,-53.70 128.54,-53.54 128.82,-53.38 129.03,-53.14 129.25,-52.90 129.37,-52.60 129.50,-52.31 129.52,-51.99 129.55,-51.67 129.47,-51.35 129.39,-51.04 129.21,-50.77 129.04,-50.51 128.79,-50.31 128.53,-50.11 128.53,-50.11 128.53,-50.11 125.72,-48.66 122.91,-47.21 120.81,-46.34 118.71,-45.46 117.15,-45.37 115.59,-45.27 113.87,-44.78 112.16,-44.28 110.11,-43.84 108.07,-43.40 104.87,-42.36 101.68,-41.32 98.20,-39.64 94.72,-37.95 89.91,-35.69 85.10,-33.42 78.89,-30.64 72.68,-27.87 65.66,-24.71 58.64,-21.56 51.39,-18.37 44.14,-15.17 37.36,-12.78 30.57,-10.40 24.73,-8.17 18.89,-5.94 14.38,-4.06 9.88,-2.19 5.22,-0.37 0.56,1.45 0.37,1.50 0.19,1.54 0.00,1.55 -0.18,1.55 -0.36,1.50 -0.54,1.46 -0.71,1.37 -0.88,1.28 -1.02,1.16 -1.16,1.04 -1.27,0.88 -1.37,0.73 -1.44,0.55 -1.51,0.38 -1.53,0.19 -1.56,0.00 -1.54,-0.17 -1.51,-0.36 -1.45,-0.54 -1.38,-0.71 -1.28,-0.87 -1.17,-1.03 -1.03,-1.15 -0.89,-1.28 -0.72,-1.36 -0.56,-1.45 -0.56,-1.45 L -0.56,-1.45 Z"></path></g><g transform="translate(906.45652173913 174.9273421301898) rotate(0 61.25 -18.75)" stroke="none" fill="#e67700"><path d="M -0.31,-1.55 Q -0.31,-1.55 1.47,-1.94 3.26,-2.32 6.82,-3.49 10.37,-4.65 14.02,-6.20 17.68,-7.74 23.66,-9.51 29.63,-11.28 37.24,-12.74 44.84,-14.21 55.64,-15.54 66.43,-16.88 73.12,-18.15 79.80,-19.43 82.96,-20.31 86.12,-21.20 88.63,-21.59 91.13,-21.98 92.26,-22.86 93.40,-23.73 95.28,-24.26 97.17,-24.78 98.68,-25.03 100.18,-25.29 101.56,-25.44 102.94,-25.59 103.90,-26.19 104.86,-26.80 105.80,-27.37 106.74,-27.94 108.25,-29.03 109.76,-30.11 111.35,-31.54 112.95,-32.97 114.01,-33.62 115.08,-34.26 116.11,-35.23 117.14,-36.20 118.84,-37.91 120.54,-39.63 120.96,-39.81 121.38,-40.00 121.84,-40.04 122.30,-40.08 122.75,-39.98 123.20,-39.87 123.59,-39.62 123.99,-39.38 124.28,-39.02 124.57,-38.66 124.73,-38.23 124.90,-37.80 124.91,-37.34 124.93,-36.88 124.80,-36.43 124.67,-35.99 124.40,-35.61 124.14,-35.24 123.76,-34.96 123.39,-34.69 122.95,-34.55 122.51,-34.41 122.05,-34.42 121.59,-34.43 121.15,-34.58 120.72,-34.74 120.35,-35.03 119.99,-35.31 119.74,-35.70 119.49,-36.08 119.37,-36.53 119.26,-36.98 119.29,-37.44 119.32,-37.90 119.50,-38.33 119.68,-38.75 119.99,-39.10 120.29,-39.45 120.69,-39.68 121.09,-39.91 121.54,-40.00 122.00,-40.09 122.45,-40.03 122.91,-39.97 123.33,-39.77 123.74,-39.57 124.07,-39.25 124.40,-38.92 124.61,-38.51 124.82,-38.10 124.89,-37.64 124.95,-37.18 124.87,-36.73 124.79,-36.28 124.56,-35.87 124.34,-35.47 124.00,-35.16 123.66,-34.85 123.66,-34.85 123.66,-34.85 121.51,-32.81 119.37,-30.77 117.90,-29.95 116.43,-29.14 115.31,-28.08 114.19,-27.03 112.36,-25.91 110.54,-24.79 109.22,-24.16 107.91,-23.53 106.61,-22.64 105.31,-21.75 104.22,-21.73 103.13,-21.70 101.86,-21.72 100.58,-21.73 99.23,-21.66 97.88,-21.60 96.42,-21.38 94.96,-21.15 93.29,-20.26 91.63,-19.37 89.24,-18.99 86.85,-18.61 83.58,-17.68 80.31,-16.75 73.54,-15.45 66.78,-14.14 56.08,-12.79 45.38,-11.45 37.92,-9.98 30.46,-8.52 24.66,-6.76 18.86,-5.01 15.11,-3.36 11.36,-1.70 7.64,-0.40 3.91,0.89 2.11,1.22 0.31,1.55 0.12,1.56 -0.07,1.58 -0.25,1.55 -0.44,1.52 -0.62,1.44 -0.79,1.37 -0.95,1.25 -1.10,1.13 -1.22,0.99 -1.34,0.84 -1.42,0.66 -1.50,0.49 -1.54,0.30 -1.58,0.12 -1.57,-0.06 -1.56,-0.26 -1.51,-0.44 -1.45,-0.62 -1.36,-0.79 -1.26,-0.95 -1.13,-1.09 -0.99,-1.23 -0.83,-1.33 -0.67,-1.43 -0.49,-1.49 -0.31,-1.55 -0.31,-1.55 L -0.31,-1.55 Z"></path></g><g transform="translate(982.70652173913 172.4273421301898) rotate(0 26.875 -6.875)" stroke="none" fill="#e67700"><path d="M -0.42,-1.69 Q -0.42,-1.69 3.90,-2.71 8.22,-3.74 13.31,-4.87 18.41,-6.01 22.80,-6.49 27.20,-6.98 30.80,-7.52 34.40,-8.07 37.60,-9.33 40.79,-10.60 43.31,-11.51 45.83,-12.43 48.84,-13.62 51.86,-14.81 52.12,-14.85 52.38,-14.90 52.64,-14.86 52.90,-14.82 53.13,-14.70 53.37,-14.58 53.55,-14.39 53.73,-14.20 53.85,-13.96 53.96,-13.73 53.99,-13.47 54.02,-13.21 53.97,-12.95 53.92,-12.69 53.79,-12.46 53.65,-12.24 53.45,-12.06 53.26,-11.89 53.01,-11.79 52.77,-11.69 52.51,-11.67 52.25,-11.66 51.99,-11.72 51.74,-11.79 51.52,-11.93 51.30,-12.08 51.14,-12.29 50.97,-12.49 50.89,-12.74 50.80,-12.99 50.80,-13.25 50.79,-13.52 50.87,-13.77 50.96,-14.02 51.11,-14.23 51.27,-14.44 51.48,-14.59 51.70,-14.74 51.95,-14.81 52.21,-14.89 52.47,-14.88 52.73,-14.86 52.98,-14.77 53.22,-14.68 53.42,-14.51 53.63,-14.34 53.77,-14.12 53.90,-13.89 53.96,-13.64 54.02,-13.38 54.00,-13.12 53.97,-12.86 53.86,-12.62 53.76,-12.38 53.58,-12.18 53.40,-11.99 53.17,-11.87 52.94,-11.74 52.94,-11.74 52.94,-11.74 49.86,-10.79 46.78,-9.84 44.30,-8.91 41.83,-7.99 38.34,-6.61 34.86,-5.23 31.20,-4.63 27.54,-4.03 23.32,-3.52 19.10,-3.00 14.06,-1.78 9.02,-0.57 4.72,0.56 0.42,1.69 0.21,1.72 0.00,1.75 -0.20,1.72 -0.41,1.70 -0.61,1.62 -0.80,1.55 -0.98,1.43 -1.15,1.31 -1.29,1.15 -1.43,0.99 -1.53,0.81 -1.63,0.62 -1.68,0.42 -1.73,0.21 -1.73,0.00 -1.73,-0.20 -1.68,-0.41 -1.63,-0.61 -1.54,-0.80 -1.44,-0.99 -1.30,-1.14 -1.16,-1.30 -0.99,-1.42 -0.81,-1.54 -0.62,-1.62 -0.42,-1.69 -0.42,-1.69 L -0.42,-1.69 Z"></path></g><g transform="translate(953.95652173913 152.4273421301898) rotate(0 33.75 -16.875)" stroke="none" fill="#e67700"><path d="M -1.05,-1.32 Q -1.05,-1.32 0.77,-2.72 2.60,-4.11 5.63,-5.84 8.67,-7.56 14.64,-10.44 20.62,-13.31 25.63,-15.94 30.65,-18.57 36.77,-21.50 42.89,-24.42 48.76,-26.75 54.63,-29.08 58.14,-30.76 61.66,-32.44 63.13,-33.24 64.61,-34.04 64.84,-34.11 65.08,-34.18 65.32,-34.17 65.57,-34.16 65.80,-34.07 66.03,-33.99 66.22,-33.83 66.41,-33.67 66.54,-33.46 66.67,-33.26 66.72,-33.02 66.78,-32.78 66.75,-32.53 66.73,-32.29 66.63,-32.06 66.53,-31.84 66.37,-31.66 66.20,-31.48 65.98,-31.36 65.77,-31.24 65.53,-31.20 65.28,-31.16 65.04,-31.19 64.80,-31.23 64.58,-31.34 64.36,-31.45 64.19,-31.63 64.02,-31.80 63.91,-32.03 63.81,-32.25 63.78,-32.49 63.75,-32.73 63.80,-32.97 63.84,-33.22 63.97,-33.43 64.09,-33.64 64.28,-33.80 64.46,-33.96 64.69,-34.06 64.92,-34.15 65.16,-34.17 65.41,-34.19 65.64,-34.12 65.88,-34.06 66.09,-33.93 66.29,-33.79 66.44,-33.60 66.59,-33.40 66.68,-33.17 66.76,-32.94 66.76,-32.69 66.76,-32.45 66.69,-32.21 66.61,-31.98 66.47,-31.78 66.32,-31.59 66.12,-31.45 65.92,-31.30 65.92,-31.30 65.92,-31.30 64.37,-30.65 62.83,-30.00 59.24,-28.27 55.65,-26.54 49.87,-24.23 44.09,-21.91 38.03,-18.99 31.98,-16.06 26.93,-13.37 21.89,-10.68 16.04,-7.81 10.19,-4.94 7.38,-3.28 4.58,-1.63 2.82,-0.15 1.05,1.32 0.88,1.43 0.71,1.53 0.51,1.60 0.32,1.66 0.11,1.67 -0.08,1.69 -0.28,1.65 -0.48,1.62 -0.67,1.54 -0.86,1.45 -1.02,1.33 -1.18,1.21 -1.31,1.05 -1.44,0.89 -1.52,0.70 -1.61,0.52 -1.65,0.32 -1.69,0.11 -1.68,-0.08 -1.67,-0.28 -1.61,-0.48 -1.55,-0.68 -1.44,-0.85 -1.34,-1.03 -1.20,-1.17 -1.05,-1.32 -1.05,-1.32 L -1.05,-1.32 Z"></path></g><g transform="translate(290.7996894409937 135.10280796869932) rotate(0 11.875 -6.25)" stroke="none" fill="#5c940d"><path d="M -0.98,-1.96 Q -0.98,-1.96 1.22,-2.93 3.43,-3.91 5.52,-4.67 7.62,-5.44 8.89,-5.90 10.17,-6.36 12.43,-7.12 14.70,-7.88 16.26,-8.85 17.81,-9.83 18.98,-10.44 20.14,-11.05 21.06,-12.29 21.98,-13.52 22.20,-13.78 22.41,-14.03 22.69,-14.21 22.97,-14.38 23.29,-14.45 23.61,-14.53 23.94,-14.50 24.27,-14.47 24.57,-14.33 24.87,-14.20 25.11,-13.97 25.35,-13.75 25.51,-13.46 25.67,-13.17 25.73,-12.85 25.78,-12.52 25.73,-12.19 25.69,-11.87 25.53,-11.57 25.38,-11.28 25.15,-11.05 24.91,-10.82 24.61,-10.68 24.31,-10.54 23.99,-10.50 23.66,-10.46 23.34,-10.52 23.01,-10.59 22.73,-10.76 22.44,-10.92 22.23,-11.17 22.01,-11.42 21.89,-11.73 21.76,-12.03 21.74,-12.36 21.72,-12.69 21.80,-13.01 21.88,-13.33 22.07,-13.60 22.25,-13.88 22.51,-14.08 22.77,-14.28 23.08,-14.39 23.39,-14.50 23.72,-14.51 24.05,-14.51 24.36,-14.41 24.68,-14.31 24.94,-14.11 25.21,-13.92 25.40,-13.64 25.58,-13.37 25.68,-13.06 25.77,-12.74 25.76,-12.41 25.74,-12.08 25.62,-11.77 25.50,-11.47 25.50,-11.47 25.51,-11.47 22.58,-9.21 19.65,-6.95 17.81,-5.75 15.96,-4.55 13.61,-3.58 11.25,-2.60 10.11,-2.37 8.97,-2.13 7.08,-1.26 5.18,-0.40 3.08,0.78 0.98,1.96 0.73,2.05 0.48,2.14 0.22,2.16 -0.04,2.19 -0.30,2.15 -0.56,2.12 -0.81,2.02 -1.05,1.92 -1.27,1.76 -1.48,1.61 -1.65,1.41 -1.83,1.21 -1.94,0.97 -2.06,0.73 -2.12,0.47 -2.18,0.22 -2.17,-0.04 -2.17,-0.30 -2.10,-0.56 -2.03,-0.81 -1.90,-1.05 -1.78,-1.28 -1.60,-1.47 -1.42,-1.67 -1.20,-1.81 -0.98,-1.96 -0.98,-1.96 L -0.98,-1.96 Z"></path></g><g transform="translate(294.5496894409937 158.85280796869932) rotate(0 40 -14.375)" stroke="none" fill="#5c940d"><path d="M 0,-1.60 Q 0,-1.60 1.41,-1.68 2.82,-1.76 6.02,-3.08 9.21,-4.40 13.98,-6.06 18.75,-7.72 23.21,-9.81 27.67,-11.91 32.51,-13.89 37.35,-15.88 41.95,-17.45 46.56,-19.01 51.69,-21.09 56.83,-23.17 62.33,-24.79 67.83,-26.42 70.83,-27.45 73.83,-28.48 76.71,-29.38 79.58,-30.28 79.84,-30.31 80.09,-30.33 80.34,-30.28 80.60,-30.22 80.82,-30.09 81.04,-29.95 81.20,-29.75 81.37,-29.56 81.46,-29.32 81.55,-29.08 81.57,-28.82 81.58,-28.56 81.51,-28.31 81.44,-28.07 81.29,-27.85 81.14,-27.64 80.94,-27.49 80.73,-27.33 80.49,-27.25 80.24,-27.17 79.98,-27.17 79.73,-27.17 79.48,-27.26 79.24,-27.34 79.03,-27.50 78.83,-27.66 78.69,-27.87 78.54,-28.09 78.48,-28.34 78.41,-28.58 78.43,-28.84 78.44,-29.10 78.54,-29.34 78.64,-29.58 78.80,-29.77 78.97,-29.97 79.19,-30.10 79.42,-30.23 79.67,-30.28 79.92,-30.34 80.18,-30.31 80.43,-30.28 80.67,-30.17 80.90,-30.06 81.08,-29.88 81.27,-29.70 81.39,-29.47 81.51,-29.24 81.55,-28.99 81.59,-28.73 81.54,-28.48 81.50,-28.22 81.38,-28.00 81.26,-27.77 81.07,-27.60 80.88,-27.42 80.64,-27.31 80.41,-27.21 80.41,-27.21 80.41,-27.21 77.56,-26.57 74.71,-25.92 71.66,-24.86 68.60,-23.80 63.24,-22.21 57.87,-20.61 52.67,-18.48 47.47,-16.35 42.97,-14.78 38.46,-13.21 33.71,-11.21 28.96,-9.21 24.38,-7.00 19.80,-4.78 15.14,-3.06 10.47,-1.34 6.70,0.20 2.92,1.76 1.46,1.68 0,1.60 -0.19,1.58 -0.38,1.56 -0.56,1.49 -0.74,1.42 -0.90,1.31 -1.06,1.20 -1.19,1.05 -1.32,0.91 -1.41,0.74 -1.50,0.57 -1.55,0.38 -1.59,0.19 -1.59,-0.00 -1.59,-0.19 -1.55,-0.38 -1.50,-0.57 -1.41,-0.74 -1.32,-0.91 -1.19,-1.05 -1.06,-1.20 -0.90,-1.31 -0.74,-1.42 -0.56,-1.49 -0.38,-1.56 -0.19,-1.58 0.00,-1.60 0.00,-1.60 L 0,-1.60 Z"></path></g><g transform="translate(313.2996894409937 172.60280796869927) rotate(0 47.5 -18.74999999999997)" stroke="none" fill="#5c940d"><path d="M -0.80,-1.34 Q -0.80,-1.34 1.00,-2.39 2.81,-3.45 5.85,-4.65 8.88,-5.86 12.31,-7.07 15.74,-8.28 19.42,-9.16 23.09,-10.05 25.60,-11.10 28.11,-12.14 31.41,-13.33 34.71,-14.52 39.30,-16.44 43.89,-18.36 47.61,-20.24 51.34,-22.12 54.12,-22.97 56.90,-23.82 58.27,-24.57 59.64,-25.32 60.71,-25.77 61.78,-26.21 65.89,-26.79 69.99,-27.37 72.91,-28.85 75.83,-30.32 79.41,-31.71 82.99,-33.11 85.51,-34.37 88.02,-35.62 91.13,-37.30 94.24,-38.98 94.50,-39.06 94.75,-39.14 95.02,-39.14 95.29,-39.13 95.55,-39.04 95.80,-38.95 96.01,-38.79 96.22,-38.62 96.37,-38.39 96.52,-38.17 96.59,-37.91 96.65,-37.65 96.63,-37.38 96.61,-37.11 96.51,-36.86 96.41,-36.61 96.23,-36.41 96.05,-36.21 95.82,-36.07 95.58,-35.94 95.32,-35.88 95.06,-35.83 94.79,-35.86 94.52,-35.90 94.28,-36.02 94.04,-36.13 93.84,-36.32 93.65,-36.51 93.53,-36.75 93.41,-36.99 93.37,-37.26 93.33,-37.52 93.38,-37.79 93.43,-38.05 93.56,-38.29 93.69,-38.53 93.89,-38.71 94.09,-38.89 94.33,-39.00 94.58,-39.11 94.85,-39.13 95.11,-39.16 95.38,-39.09 95.64,-39.03 95.87,-38.89 96.10,-38.74 96.27,-38.54 96.44,-38.33 96.53,-38.08 96.63,-37.82 96.64,-37.55 96.65,-37.29 96.57,-37.03 96.49,-36.77 96.34,-36.55 96.18,-36.33 95.97,-36.17 95.75,-36.01 95.75,-36.01 95.75,-36.01 92.56,-34.49 89.38,-32.98 86.77,-31.60 84.15,-30.23 80.73,-28.81 77.32,-27.40 73.92,-25.65 70.51,-23.90 67.33,-23.40 64.15,-22.91 62.53,-22.75 60.92,-22.59 59.30,-21.94 57.67,-21.28 55.10,-20.51 52.53,-19.74 48.73,-17.81 44.93,-15.89 40.28,-13.93 35.63,-11.97 32.40,-10.80 29.17,-9.62 26.46,-8.48 23.75,-7.35 20.23,-6.48 16.70,-5.61 13.34,-4.38 9.97,-3.15 7.17,-2.00 4.36,-0.85 2.58,0.24 0.80,1.34 0.63,1.41 0.46,1.49 0.27,1.52 0.08,1.56 -0.09,1.55 -0.28,1.53 -0.46,1.48 -0.64,1.42 -0.80,1.32 -0.96,1.22 -1.10,1.09 -1.23,0.96 -1.33,0.79 -1.42,0.63 -1.48,0.45 -1.54,0.27 -1.55,0.08 -1.56,-0.09 -1.52,-0.28 -1.49,-0.47 -1.41,-0.64 -1.33,-0.81 -1.21,-0.96 -1.10,-1.11 -0.95,-1.22 -0.80,-1.34 -0.80,-1.34 L -0.80,-1.34 Z"></path></g><g transform="translate(372.0496894409937 167.60280796869927) rotate(0 16.25 -9.374999999999972)" stroke="none" fill="#5c940d"><path d="M -0.69,-1.61 Q -0.69,-1.61 1.84,-2.64 4.38,-3.66 6.28,-4.18 8.18,-4.69 11.38,-5.89 14.58,-7.09 17.71,-8.64 20.85,-10.19 23.59,-11.90 26.32,-13.60 27.73,-15.28 29.13,-16.96 30.23,-18.35 31.32,-19.74 31.51,-19.90 31.70,-20.06 31.93,-20.15 32.16,-20.24 32.41,-20.26 32.66,-20.27 32.90,-20.21 33.14,-20.14 33.34,-20.00 33.55,-19.86 33.70,-19.66 33.85,-19.47 33.93,-19.23 34.01,-19.00 34.01,-18.75 34.01,-18.50 33.93,-18.26 33.85,-18.03 33.70,-17.83 33.55,-17.63 33.35,-17.49 33.14,-17.35 32.90,-17.29 32.66,-17.22 32.42,-17.23 32.17,-17.24 31.94,-17.34 31.71,-17.43 31.52,-17.59 31.33,-17.75 31.20,-17.96 31.07,-18.17 31.02,-18.42 30.96,-18.66 30.99,-18.91 31.01,-19.15 31.12,-19.38 31.22,-19.60 31.39,-19.79 31.56,-19.97 31.78,-20.08 32.00,-20.20 32.25,-20.24 32.49,-20.28 32.74,-20.24 32.98,-20.20 33.20,-20.09 33.42,-19.97 33.59,-19.79 33.76,-19.61 33.87,-19.38 33.97,-19.16 34.00,-18.91 34.03,-18.66 33.98,-18.42 33.92,-18.18 33.80,-17.97 33.67,-17.75 33.67,-17.75 33.67,-17.75 32.48,-16.44 31.29,-15.13 29.60,-13.15 27.91,-11.17 25.06,-9.34 22.21,-7.51 18.97,-5.82 15.73,-4.14 12.37,-2.79 9.02,-1.44 7.34,-1.04 5.67,-0.64 3.18,0.48 0.69,1.61 0.48,1.67 0.28,1.73 0.07,1.74 -0.13,1.75 -0.34,1.71 -0.55,1.67 -0.74,1.58 -0.93,1.48 -1.10,1.35 -1.26,1.22 -1.39,1.05 -1.52,0.88 -1.60,0.68 -1.69,0.49 -1.72,0.28 -1.75,0.07 -1.74,-0.13 -1.72,-0.34 -1.65,-0.55 -1.59,-0.75 -1.47,-0.93 -1.36,-1.11 -1.21,-1.25 -1.06,-1.40 -0.87,-1.51 -0.69,-1.61 -0.69,-1.61 L -0.69,-1.61 Z"></path></g><g transform="translate(398.2996894409937 170.10280796869927) rotate(0 7.5 -5)" stroke="none" fill="#5c940d"><path d="M -0.84,-1.69 Q -0.84,-1.69 1.34,-2.69 3.53,-3.70 5.06,-4.78 6.60,-5.87 8.75,-7.40 10.90,-8.93 12.48,-10.10 14.05,-11.27 14.28,-11.39 14.51,-11.50 14.76,-11.54 15.02,-11.58 15.27,-11.54 15.52,-11.49 15.75,-11.37 15.97,-11.24 16.14,-11.06 16.32,-10.87 16.42,-10.63 16.53,-10.40 16.55,-10.14 16.58,-9.89 16.52,-9.64 16.46,-9.39 16.32,-9.17 16.19,-8.95 15.99,-8.79 15.79,-8.63 15.56,-8.53 15.32,-8.44 15.06,-8.43 14.80,-8.42 14.56,-8.49 14.31,-8.57 14.10,-8.71 13.89,-8.86 13.74,-9.06 13.59,-9.27 13.51,-9.51 13.43,-9.76 13.43,-10.02 13.43,-10.27 13.52,-10.51 13.60,-10.76 13.76,-10.96 13.92,-11.16 14.13,-11.30 14.35,-11.44 14.60,-11.51 14.84,-11.57 15.10,-11.56 15.36,-11.54 15.59,-11.44 15.83,-11.34 16.02,-11.17 16.22,-11.01 16.35,-10.78 16.48,-10.56 16.53,-10.31 16.58,-10.06 16.55,-9.81 16.52,-9.55 16.41,-9.32 16.30,-9.09 16.12,-8.90 15.94,-8.72 15.94,-8.72 15.94,-8.72 14.36,-7.56 12.78,-6.39 10.67,-4.77 8.56,-3.14 6.82,-1.87 5.09,-0.60 2.96,0.54 0.84,1.69 0.63,1.76 0.41,1.84 0.18,1.86 -0.03,1.89 -0.26,1.85 -0.48,1.82 -0.70,1.74 -0.91,1.65 -1.09,1.52 -1.28,1.39 -1.42,1.21 -1.57,1.04 -1.67,0.83 -1.78,0.63 -1.83,0.41 -1.88,0.19 -1.87,-0.03 -1.87,-0.26 -1.81,-0.48 -1.75,-0.70 -1.64,-0.90 -1.53,-1.10 -1.38,-1.27 -1.22,-1.44 -1.03,-1.56 -0.84,-1.69 -0.84,-1.69 L -0.84,-1.69 Z"></path></g><g transform="translate(294.5496894409937 145.10280796869932) rotate(0 28.75 -11.25)" stroke="none" fill="#5c940d"><path d="M -0.43,-1.51 Q -0.43,-1.51 2.09,-2.20 4.61,-2.88 7.52,-3.53 10.43,-4.18 13.83,-4.80 17.23,-5.43 19.23,-6.36 21.23,-7.29 23.97,-8.43 26.70,-9.57 29.21,-11.08 31.72,-12.59 34.68,-14.00 37.63,-15.41 40.30,-16.71 42.96,-18.01 44.81,-18.94 46.66,-19.86 47.85,-20.40 49.04,-20.94 50.38,-21.24 51.72,-21.54 53.95,-22.86 56.18,-24.18 56.48,-24.34 56.78,-24.51 57.12,-24.57 57.46,-24.63 57.81,-24.58 58.15,-24.53 58.46,-24.37 58.76,-24.22 59.01,-23.97 59.25,-23.72 59.40,-23.41 59.55,-23.10 59.59,-22.75 59.63,-22.41 59.56,-22.07 59.49,-21.73 59.32,-21.43 59.14,-21.13 58.88,-20.91 58.62,-20.68 58.30,-20.55 57.99,-20.41 57.64,-20.39 57.29,-20.37 56.96,-20.45 56.63,-20.54 56.34,-20.73 56.05,-20.92 55.83,-21.19 55.62,-21.47 55.51,-21.79 55.39,-22.12 55.39,-22.46 55.38,-22.81 55.49,-23.14 55.59,-23.47 55.80,-23.75 56.00,-24.03 56.29,-24.22 56.57,-24.42 56.90,-24.52 57.23,-24.62 57.58,-24.60 57.92,-24.59 58.25,-24.47 58.57,-24.34 58.84,-24.12 59.10,-23.90 59.29,-23.61 59.47,-23.32 59.55,-22.98 59.63,-22.64 59.60,-22.30 59.56,-21.95 59.42,-21.64 59.28,-21.32 59.05,-21.07 58.81,-20.81 58.81,-20.81 58.81,-20.81 55.51,-19.39 52.21,-17.96 51.13,-17.93 50.06,-17.90 48.96,-17.66 47.85,-17.43 46.00,-16.52 44.14,-15.62 41.46,-14.30 38.79,-12.99 35.95,-11.63 33.11,-10.28 30.44,-8.66 27.77,-7.05 25.08,-5.91 22.39,-4.77 20.09,-3.71 17.78,-2.66 14.43,-2.00 11.09,-1.35 8.26,-0.67 5.44,0.00 2.93,0.76 0.43,1.51 0.24,1.54 0.05,1.57 -0.13,1.55 -0.32,1.54 -0.50,1.48 -0.68,1.42 -0.84,1.32 -1.00,1.21 -1.13,1.08 -1.26,0.94 -1.35,0.77 -1.45,0.61 -1.50,0.42 -1.55,0.24 -1.56,0.05 -1.57,-0.13 -1.53,-0.31 -1.49,-0.50 -1.41,-0.67 -1.32,-0.84 -1.20,-0.99 -1.08,-1.14 -0.93,-1.25 -0.78,-1.36 -0.60,-1.44 -0.43,-1.51 -0.43,-1.51 L -0.43,-1.51 Z"></path></g><g transform="translate(671.7099849817312 131.44382564667353) rotate(0 11.875 -6.25)" stroke="none" fill="#5c940d"><path d="M -0.97,-1.94 Q -0.97,-1.94 1.23,-2.92 3.44,-3.89 5.53,-4.66 7.62,-5.43 8.90,-5.89 10.17,-6.35 12.44,-7.11 14.70,-7.87 16.26,-8.85 17.82,-9.83 18.98,-10.44 20.15,-11.05 20.98,-12.09 21.81,-13.12 22.01,-13.37 22.22,-13.62 22.49,-13.79 22.77,-13.96 23.08,-14.03 23.39,-14.11 23.71,-14.07 24.03,-14.04 24.33,-13.91 24.62,-13.78 24.86,-13.56 25.09,-13.34 25.25,-13.06 25.40,-12.78 25.46,-12.46 25.52,-12.15 25.47,-11.83 25.42,-11.51 25.27,-11.22 25.12,-10.94 24.89,-10.71 24.66,-10.49 24.37,-10.35 24.08,-10.21 23.76,-10.17 23.44,-10.13 23.13,-10.20 22.81,-10.26 22.54,-10.43 22.26,-10.59 22.05,-10.83 21.83,-11.07 21.71,-11.37 21.59,-11.67 21.57,-11.99 21.55,-12.31 21.63,-12.62 21.71,-12.93 21.89,-13.20 22.07,-13.47 22.32,-13.67 22.57,-13.87 22.88,-13.97 23.18,-14.08 23.50,-14.08 23.82,-14.09 24.13,-13.99 24.44,-13.89 24.69,-13.70 24.95,-13.51 25.14,-13.24 25.32,-12.98 25.41,-12.67 25.50,-12.36 25.49,-12.04 25.47,-11.72 25.36,-11.42 25.24,-11.12 25.24,-11.12 25.24,-11.12 22.44,-9.03 19.65,-6.95 17.80,-5.75 15.96,-4.56 13.61,-3.58 11.25,-2.61 10.11,-2.38 8.97,-2.14 7.07,-1.27 5.18,-0.41 3.07,0.76 0.97,1.94 0.72,2.03 0.47,2.12 0.21,2.14 -0.04,2.17 -0.30,2.13 -0.56,2.10 -0.80,2.00 -1.04,1.90 -1.26,1.75 -1.47,1.60 -1.64,1.40 -1.81,1.20 -1.93,0.96 -2.04,0.73 -2.10,0.47 -2.16,0.21 -2.16,-0.04 -2.15,-0.30 -2.08,-0.55 -2.01,-0.81 -1.89,-1.04 -1.76,-1.27 -1.58,-1.46 -1.41,-1.65 -1.19,-1.80 -0.97,-1.94 -0.97,-1.94 L -0.97,-1.94 Z"></path></g><g transform="translate(671.1010106227568 146.98869744154536) rotate(0 54.1025641025642 -7.708333333333371)" stroke="none" fill="#5c940d"><path d="M 0,11.75 Q 0,11.75 1.91,11.75 3.83,11.75 8.26,9.74 12.70,7.74 19.12,5.27 25.54,2.81 31.59,-0.28 37.65,-3.39 44.17,-6.31 50.70,-9.23 56.91,-11.53 63.11,-13.83 70.07,-16.89 77.03,-19.94 84.44,-22.32 91.86,-24.70 95.92,-26.22 99.99,-27.73 103.17,-28.80 106.36,-29.86 106.61,-29.89 106.87,-29.92 107.12,-29.87 107.37,-29.82 107.59,-29.69 107.81,-29.56 107.98,-29.37 108.15,-29.17 108.25,-28.94 108.35,-28.70 108.37,-28.44 108.38,-28.19 108.32,-27.94 108.25,-27.69 108.11,-27.47 107.97,-27.26 107.77,-27.10 107.56,-26.94 107.32,-26.86 107.08,-26.77 106.82,-26.77 106.56,-26.77 106.32,-26.84 106.08,-26.92 105.87,-27.08 105.66,-27.23 105.52,-27.44 105.37,-27.65 105.30,-27.90 105.22,-28.14 105.23,-28.40 105.25,-28.66 105.34,-28.90 105.43,-29.14 105.59,-29.34 105.76,-29.53 105.98,-29.67 106.19,-29.81 106.44,-29.86 106.69,-29.92 106.95,-29.90 107.21,-29.87 107.44,-29.77 107.68,-29.66 107.87,-29.49 108.05,-29.31 108.18,-29.09 108.30,-28.86 108.35,-28.61 108.39,-28.36 108.35,-28.10 108.31,-27.85 108.20,-27.62 108.08,-27.39 107.89,-27.21 107.71,-27.03 107.48,-26.92 107.25,-26.81 107.25,-26.81 107.25,-26.81 104.09,-26.02 100.92,-25.23 96.80,-23.69 92.68,-22.15 85.40,-19.81 78.12,-17.47 71.09,-14.36 64.07,-11.26 57.95,-8.98 51.84,-6.69 45.40,-3.78 38.95,-0.86 32.77,2.33 26.60,5.54 20.27,8.02 13.93,10.50 8.94,12.71 3.94,14.91 1.97,14.91 0,14.91 -0.18,14.88 -0.37,14.86 -0.55,14.79 -0.73,14.73 -0.88,14.62 -1.04,14.51 -1.17,14.37 -1.29,14.22 -1.38,14.06 -1.47,13.89 -1.52,13.70 -1.56,13.52 -1.56,13.33 -1.56,13.14 -1.52,12.95 -1.47,12.77 -1.38,12.60 -1.29,12.43 -1.17,12.29 -1.04,12.15 -0.88,12.04 -0.73,11.93 -0.55,11.86 -0.37,11.80 -0.18,11.77 0.00,11.75 0.00,11.75 L 0,11.75 Z"></path></g><g transform="translate(670.8766516483979 156.63613333898132) rotate(0 63.65384615384619 -9.903846153846132)" stroke="none" fill="#5c940d"><path d="M -0.42,16.14 Q -0.42,16.14 1.46,15.65 3.34,15.15 4.33,14.01 5.32,12.87 9.00,11.16 12.68,9.45 17.08,7.72 21.49,6.00 26.31,4.73 31.14,3.45 34.49,1.91 37.85,0.37 42.24,-1.36 46.64,-3.10 52.80,-5.93 58.96,-8.76 63.95,-11.53 68.95,-14.30 72.65,-15.53 76.35,-16.77 78.26,-17.76 80.18,-18.75 81.57,-19.34 82.97,-19.93 84.10,-20.25 85.24,-20.57 89.56,-21.12 93.88,-21.66 97.86,-23.91 101.85,-26.15 106.62,-28.22 111.39,-30.29 114.78,-32.17 118.16,-34.05 121.56,-36.08 124.96,-38.11 125.22,-38.20 125.47,-38.30 125.74,-38.30 126.02,-38.31 126.27,-38.23 126.53,-38.14 126.75,-37.98 126.97,-37.83 127.13,-37.60 127.29,-37.38 127.37,-37.12 127.44,-36.86 127.43,-36.59 127.43,-36.32 127.33,-36.07 127.24,-35.81 127.06,-35.60 126.89,-35.39 126.66,-35.25 126.43,-35.10 126.17,-35.04 125.91,-34.97 125.64,-35.00 125.36,-35.02 125.12,-35.13 124.87,-35.24 124.67,-35.42 124.47,-35.60 124.33,-35.84 124.20,-36.08 124.15,-36.34 124.10,-36.61 124.14,-36.88 124.18,-37.15 124.30,-37.39 124.42,-37.63 124.62,-37.82 124.81,-38.01 125.05,-38.13 125.30,-38.25 125.57,-38.29 125.84,-38.32 126.10,-38.27 126.37,-38.22 126.60,-38.08 126.84,-37.95 127.02,-37.74 127.20,-37.54 127.30,-37.29 127.41,-37.04 127.43,-36.77 127.45,-36.50 127.38,-36.24 127.32,-35.97 127.17,-35.75 127.02,-35.52 126.81,-35.35 126.60,-35.18 126.60,-35.18 126.60,-35.18 123.09,-33.36 119.58,-31.53 116.09,-29.54 112.60,-27.55 107.99,-25.49 103.38,-23.42 98.90,-20.92 94.42,-18.41 89.18,-17.69 83.94,-16.96 82.67,-16.67 81.39,-16.38 79.30,-15.31 77.20,-14.23 73.73,-13.08 70.25,-11.94 65.18,-9.11 60.10,-6.28 53.88,-3.41 47.66,-0.53 43.34,1.19 39.02,2.93 35.46,4.58 31.89,6.23 27.24,7.50 22.59,8.76 18.29,10.52 13.99,12.27 10.78,13.76 7.58,15.25 5.97,16.68 4.36,18.11 2.39,18.67 0.42,19.23 0.23,19.26 0.04,19.29 -0.15,19.27 -0.34,19.25 -0.52,19.19 -0.70,19.12 -0.86,19.02 -1.02,18.91 -1.16,18.77 -1.29,18.63 -1.38,18.46 -1.48,18.29 -1.53,18.11 -1.58,17.92 -1.58,17.73 -1.59,17.54 -1.55,17.35 -1.51,17.16 -1.42,16.99 -1.34,16.81 -1.21,16.66 -1.09,16.52 -0.93,16.40 -0.78,16.29 -0.60,16.22 -0.42,16.14 -0.42,16.14 L -0.42,16.14 Z"></path></g><g transform="translate(722.1907542125005 159.8412615441094) rotate(0 35.99358974358972 -1.9391025641025124)" stroke="none" fill="#5c940d"><path d="M -0.32,13.27 Q -0.32,13.27 2.86,12.67 6.05,12.07 9.67,10.58 13.28,9.08 16.60,8.40 19.92,7.72 26.77,5.54 33.63,3.36 40.50,0.51 47.38,-2.32 53.45,-5.44 59.52,-8.56 62.77,-11.72 66.02,-14.88 67.45,-16.28 68.88,-17.69 69.07,-17.82 69.25,-17.95 69.47,-18.01 69.68,-18.07 69.91,-18.06 70.13,-18.05 70.34,-17.97 70.55,-17.89 70.73,-17.74 70.90,-17.60 71.02,-17.41 71.14,-17.21 71.19,-16.99 71.24,-16.77 71.21,-16.55 71.19,-16.33 71.10,-16.12 71.01,-15.92 70.85,-15.75 70.70,-15.59 70.50,-15.48 70.30,-15.37 70.08,-15.33 69.86,-15.29 69.63,-15.33 69.41,-15.36 69.21,-15.47 69.01,-15.57 68.86,-15.73 68.70,-15.90 68.60,-16.10 68.51,-16.30 68.48,-16.53 68.45,-16.75 68.50,-16.97 68.55,-17.19 68.66,-17.39 68.78,-17.58 68.95,-17.73 69.12,-17.88 69.33,-17.96 69.54,-18.05 69.76,-18.06 69.99,-18.07 70.20,-18.02 70.42,-17.96 70.61,-17.83 70.80,-17.71 70.93,-17.53 71.07,-17.35 71.15,-17.14 71.22,-16.92 71.22,-16.70 71.22,-16.47 71.15,-16.26 71.08,-16.05 70.95,-15.86 70.81,-15.68 70.81,-15.68 70.81,-15.68 69.35,-14.31 67.89,-12.93 64.34,-9.55 60.79,-6.16 54.61,-2.97 48.43,0.22 41.46,3.12 34.49,6.03 27.50,8.28 20.50,10.53 17.46,11.18 14.41,11.82 10.54,13.46 6.67,15.09 3.50,15.78 0.32,16.47 0.12,16.48 -0.06,16.50 -0.26,16.46 -0.45,16.43 -0.63,16.36 -0.81,16.28 -0.97,16.16 -1.13,16.04 -1.25,15.89 -1.37,15.74 -1.46,15.56 -1.54,15.38 -1.58,15.19 -1.62,15.00 -1.61,14.80 -1.60,14.60 -1.55,14.41 -1.49,14.22 -1.40,14.05 -1.30,13.88 -1.16,13.74 -1.02,13.60 -0.86,13.50 -0.69,13.39 -0.50,13.33 -0.32,13.27 -0.32,13.27 L -0.32,13.27 Z"></path></g><g transform="translate(767.4151131868593 167.2130564159043) rotate(0 16.089743589743648 -0.25641025641021997)" stroke="none" fill="#5c940d"><path d="M -0.91,7.98 Q -0.91,7.98 1.43,6.63 3.78,5.28 7.21,3.96 10.64,2.65 13.46,0.80 16.28,-1.04 20.62,-3.95 24.96,-6.85 26.81,-8.09 28.66,-9.32 28.87,-9.41 29.08,-9.51 29.30,-9.53 29.53,-9.56 29.75,-9.51 29.97,-9.46 30.17,-9.34 30.36,-9.22 30.51,-9.05 30.66,-8.88 30.74,-8.67 30.82,-8.45 30.83,-8.23 30.85,-8.00 30.79,-7.78 30.72,-7.56 30.60,-7.37 30.47,-7.19 30.29,-7.05 30.11,-6.91 29.89,-6.84 29.68,-6.77 29.45,-6.77 29.22,-6.77 29.01,-6.84 28.79,-6.91 28.61,-7.05 28.43,-7.19 28.30,-7.38 28.18,-7.57 28.12,-7.79 28.06,-8.00 28.07,-8.23 28.08,-8.46 28.16,-8.67 28.25,-8.88 28.40,-9.05 28.54,-9.23 28.74,-9.34 28.93,-9.46 29.16,-9.51 29.38,-9.56 29.60,-9.53 29.83,-9.51 30.04,-9.41 30.24,-9.31 30.41,-9.16 30.57,-9.00 30.68,-8.80 30.78,-8.60 30.82,-8.38 30.86,-8.15 30.82,-7.93 30.78,-7.70 30.67,-7.50 30.57,-7.30 30.40,-7.15 30.24,-6.99 30.24,-6.99 30.24,-6.99 28.41,-5.73 26.57,-4.47 22.25,-1.52 17.92,1.43 14.85,3.48 11.79,5.53 8.63,6.81 5.47,8.08 3.19,9.54 0.91,10.99 0.71,11.07 0.52,11.16 0.31,11.20 0.10,11.24 -0.10,11.22 -0.31,11.21 -0.51,11.15 -0.72,11.09 -0.90,10.98 -1.08,10.87 -1.23,10.72 -1.38,10.57 -1.49,10.39 -1.60,10.21 -1.66,10.00 -1.72,9.80 -1.74,9.59 -1.75,9.38 -1.71,9.17 -1.67,8.96 -1.59,8.77 -1.50,8.57 -1.37,8.41 -1.24,8.24 -1.07,8.11 -0.91,7.98 -0.91,7.98 L -0.91,7.98 Z"></path></g><g transform="translate(677.254856776603 144.26433846718635) rotate(0 28.75 -11.25)" stroke="none" fill="#5c940d"><path d="M -0.43,-1.51 Q -0.43,-1.51 2.09,-2.20 4.61,-2.88 7.52,-3.53 10.43,-4.18 13.83,-4.80 17.23,-5.43 19.23,-6.36 21.23,-7.29 23.97,-8.43 26.70,-9.57 29.21,-11.08 31.72,-12.59 34.68,-14.00 37.63,-15.41 40.30,-16.71 42.96,-18.01 44.81,-18.94 46.66,-19.86 47.85,-20.40 49.04,-20.94 50.38,-21.24 51.72,-21.54 53.75,-22.68 55.78,-23.82 56.08,-23.98 56.38,-24.14 56.71,-24.20 57.04,-24.26 57.38,-24.21 57.71,-24.16 58.02,-24.01 58.32,-23.85 58.56,-23.61 58.79,-23.37 58.94,-23.06 59.09,-22.76 59.13,-22.42 59.17,-22.08 59.10,-21.75 59.03,-21.42 58.86,-21.12 58.69,-20.83 58.44,-20.61 58.18,-20.39 57.87,-20.25 57.55,-20.12 57.22,-20.10 56.88,-20.08 56.55,-20.16 56.22,-20.25 55.94,-20.44 55.66,-20.62 55.45,-20.89 55.24,-21.16 55.12,-21.48 55.01,-21.80 55.01,-22.14 55.00,-22.47 55.10,-22.80 55.21,-23.12 55.41,-23.39 55.61,-23.67 55.89,-23.86 56.17,-24.05 56.49,-24.15 56.82,-24.25 57.16,-24.23 57.50,-24.22 57.81,-24.10 58.13,-23.98 58.39,-23.76 58.65,-23.55 58.83,-23.26 59.01,-22.97 59.09,-22.64 59.17,-22.31 59.13,-21.97 59.10,-21.63 58.96,-21.32 58.83,-21.01 58.60,-20.76 58.37,-20.51 58.37,-20.52 58.37,-20.52 55.29,-19.24 52.21,-17.96 51.13,-17.93 50.06,-17.90 48.96,-17.66 47.85,-17.43 46.00,-16.52 44.14,-15.62 41.46,-14.30 38.79,-12.99 35.95,-11.63 33.11,-10.28 30.44,-8.66 27.77,-7.05 25.08,-5.91 22.39,-4.77 20.09,-3.71 17.78,-2.66 14.43,-2.00 11.09,-1.35 8.26,-0.67 5.44,0.00 2.93,0.76 0.43,1.51 0.24,1.54 0.05,1.57 -0.13,1.55 -0.32,1.54 -0.50,1.48 -0.68,1.42 -0.84,1.32 -1.00,1.21 -1.13,1.08 -1.26,0.94 -1.35,0.77 -1.45,0.61 -1.50,0.42 -1.55,0.24 -1.56,0.05 -1.57,-0.13 -1.53,-0.31 -1.49,-0.50 -1.41,-0.67 -1.32,-0.84 -1.20,-0.99 -1.08,-1.14 -0.93,-1.25 -0.78,-1.36 -0.60,-1.44 -0.43,-1.51 -0.43,-1.51 L -0.43,-1.51 Z"></path></g><g transform="translate(18.03074571065963 121.94444444444457) rotate(0 45.5 25)"><text x="0" y="18" font-family="Virgil, Segoe UI Emoji" font-size="20px" fill="#000000" text-anchor="start" style="white-space: pre;" direction="ltr">Does</text><text x="0" y="43" font-family="Virgil, Segoe UI Emoji" font-size="20px" fill="#000000" text-anchor="start" style="white-space: pre;" direction="ltr">not exist</text></g><g transform="translate(726.7113012662151 27.47222222222223) rotate(0 11.875 -6.25)" stroke="none" fill="#e67700"><path d="M -0.89,-1.79 Q -0.89,-1.79 0.52,-2.53 1.95,-3.27 3.73,-3.95 5.51,-4.63 7.65,-5.52 9.79,-6.42 11.75,-7.46 13.71,-8.51 16.44,-9.71 19.17,-10.90 20.56,-12.12 21.96,-13.35 22.21,-13.48 22.46,-13.62 22.74,-13.67 23.02,-13.72 23.30,-13.67 23.59,-13.63 23.84,-13.50 24.10,-13.37 24.29,-13.16 24.49,-12.95 24.62,-12.70 24.74,-12.44 24.77,-12.15 24.81,-11.87 24.75,-11.59 24.69,-11.31 24.54,-11.06 24.40,-10.82 24.18,-10.63 23.97,-10.44 23.70,-10.33 23.44,-10.22 23.15,-10.21 22.86,-10.19 22.59,-10.26 22.31,-10.34 22.07,-10.49 21.83,-10.65 21.66,-10.88 21.48,-11.10 21.39,-11.37 21.30,-11.64 21.29,-11.93 21.29,-12.22 21.38,-12.49 21.47,-12.76 21.64,-12.99 21.81,-13.22 22.05,-13.38 22.28,-13.55 22.56,-13.62 22.83,-13.70 23.12,-13.69 23.40,-13.68 23.67,-13.57 23.94,-13.47 24.16,-13.29 24.38,-13.11 24.53,-12.86 24.68,-12.62 24.74,-12.34 24.80,-12.06 24.78,-11.77 24.75,-11.49 24.63,-11.23 24.51,-10.97 24.32,-10.76 24.12,-10.55 24.12,-10.55 24.12,-10.55 22.31,-9.29 20.50,-8.03 17.94,-6.81 15.38,-5.59 13.36,-4.35 11.33,-3.11 9.15,-2.00 6.98,-0.90 5.38,-0.25 3.79,0.39 2.34,1.09 0.89,1.79 0.67,1.88 0.44,1.96 0.20,1.98 -0.03,2.01 -0.27,1.97 -0.51,1.94 -0.74,1.85 -0.97,1.76 -1.16,1.62 -1.36,1.47 -1.52,1.29 -1.67,1.11 -1.78,0.89 -1.89,0.67 -1.94,0.43 -2.00,0.20 -1.99,-0.03 -1.99,-0.28 -1.92,-0.51 -1.86,-0.75 -1.75,-0.96 -1.63,-1.17 -1.46,-1.35 -1.30,-1.53 -1.10,-1.66 -0.89,-1.79 -0.89,-1.79 L -0.89,-1.79 Z"></path></g><g transform="translate(773.0307457106596 10) rotate(0 123.5 12.5)"><text x="0" y="18" font-family="Virgil, Segoe UI Emoji" font-size="20px" fill="#000000" text-anchor="start" style="white-space: pre;" direction="ltr">Thread on Waiting state</text></g><g transform="translate(725.600190155104 67.47222222222217) rotate(0 11.875 -6.25)" stroke="none" fill="#5c940d"><path d="M -0.89,-1.79 Q -0.89,-1.79 0.52,-2.53 1.95,-3.27 3.73,-3.95 5.51,-4.63 7.65,-5.52 9.79,-6.42 11.75,-7.46 13.71,-8.51 16.44,-9.71 19.17,-10.90 20.56,-12.12 21.96,-13.35 22.21,-13.48 22.46,-13.62 22.74,-13.67 23.02,-13.72 23.30,-13.67 23.59,-13.63 23.84,-13.50 24.10,-13.37 24.29,-13.16 24.49,-12.95 24.62,-12.70 24.74,-12.44 24.77,-12.15 24.81,-11.87 24.75,-11.59 24.69,-11.31 24.54,-11.06 24.40,-10.82 24.18,-10.63 23.97,-10.44 23.70,-10.33 23.44,-10.22 23.15,-10.21 22.86,-10.19 22.59,-10.26 22.31,-10.34 22.07,-10.49 21.83,-10.65 21.66,-10.88 21.48,-11.10 21.39,-11.37 21.30,-11.64 21.29,-11.93 21.29,-12.22 21.38,-12.49 21.47,-12.76 21.64,-12.99 21.81,-13.22 22.05,-13.38 22.28,-13.55 22.56,-13.62 22.83,-13.70 23.12,-13.69 23.40,-13.68 23.67,-13.57 23.94,-13.47 24.16,-13.29 24.38,-13.11 24.53,-12.86 24.68,-12.62 24.74,-12.34 24.80,-12.06 24.78,-11.77 24.75,-11.49 24.63,-11.23 24.51,-10.97 24.32,-10.76 24.12,-10.55 24.12,-10.55 24.12,-10.55 22.31,-9.29 20.50,-8.03 17.94,-6.81 15.38,-5.59 13.36,-4.35 11.33,-3.11 9.15,-2.00 6.98,-0.90 5.38,-0.25 3.79,0.39 2.34,1.09 0.89,1.79 0.67,1.88 0.44,1.96 0.20,1.98 -0.03,2.01 -0.27,1.97 -0.51,1.94 -0.74,1.85 -0.97,1.76 -1.16,1.62 -1.36,1.47 -1.52,1.29 -1.67,1.11 -1.78,0.89 -1.89,0.67 -1.94,0.43 -2.00,0.20 -1.99,-0.03 -1.99,-0.28 -1.92,-0.51 -1.86,-0.75 -1.75,-0.96 -1.63,-1.17 -1.46,-1.35 -1.30,-1.53 -1.10,-1.66 -0.89,-1.79 -0.89,-1.79 L -0.89,-1.79 Z"></path></g><g transform="translate(773.975190155104 46.5) rotate(0 131.5 12.5)"><text x="0" y="18" font-family="Virgil, Segoe UI Emoji" font-size="20px" fill="#000000" text-anchor="start" style="white-space: pre;" direction="ltr">Thread on Runnable state</text></g><g transform="translate(1031.086301266215 185) rotate(0 9.5 12.5)"><text x="0" y="18" font-family="Virgil, Segoe UI Emoji" font-size="20px" fill="#000000" text-anchor="start" style="white-space: pre;" direction="ltr">-&gt;</text></g><g transform="translate(50.391856821770716 12.361111111111256) rotate(0 99.5 25)"><text x="0" y="18" font-family="Virgil, Segoe UI Emoji" font-size="20px" fill="#000000" text-anchor="start" style="white-space: pre;" direction="ltr">- Task1: 30s, 20s</text><text x="0" y="43" font-family="Virgil, Segoe UI Emoji" font-size="20px" fill="#000000" text-anchor="start" style="white-space: pre;" direction="ltr">- Task2: 90s, 20s </text></g><g stroke-linecap="round"><g transform="translate(118.56947283345403 65.40170940170975) rotate(0 -0.5652976530449223 23.68712351680162)"><path d="M0 0 C-0.33 13.69, -0.65 27.37, -1.13 47.37 M0 0 C-0.38 15.94, -0.76 31.89, -1.13 47.37" stroke="#000000" stroke-width="1" fill="none"></path></g><g transform="translate(118.56947283345403 65.40170940170975) rotate(0 -0.5652976530449223 23.68712351680162)"><path d="M-1.13 47.37 L-7.14 33.63 L5.53 33.93 L-1.13 47.37" stroke="none" stroke-width="0" fill="#000000" fill-rule="evenodd"></path><path d="M-1.13 47.37 C-2.87 43.4, -4.6 39.43, -7.14 33.63 M-1.13 47.37 C-3.15 42.75, -5.18 38.13, -7.14 33.63 M-7.14 33.63 C-3.62 33.72, -0.1 33.8, 5.53 33.93 M-7.14 33.63 C-3.23 33.73, 0.68 33.82, 5.53 33.93 M5.53 33.93 C3.25 38.54, 0.97 43.14, -1.13 47.37 M5.53 33.93 C2.95 39.15, 0.36 44.37, -1.13 47.37 M-1.13 47.37 C-1.13 47.37, -1.13 47.37, -1.13 47.37 M-1.13 47.37 C-1.13 47.37, -1.13 47.37, -1.13 47.37" stroke="#000000" stroke-width="1" fill="none"></path></g></g><g transform="translate(1021.6883311807458 206.41452991453025) rotate(0 20 12.5)"><text x="0" y="18" font-family="Virgil, Segoe UI Emoji" font-size="20px" fill="#000000" text-anchor="start" style="white-space: pre;" direction="ltr">time</text></g><g transform="translate(332.3589661013807 89.1565934065938) rotate(0 22.5 10)"><text x="0" y="14" font-family="Virgil, Segoe UI Emoji" font-size="16px" fill="#000000" text-anchor="start" style="white-space: pre;" direction="ltr">Task1</text></g><g transform="translate(716.1089661013807 91.9065934065938) rotate(0 26 10)"><text x="0" y="14" font-family="Virgil, Segoe UI Emoji" font-size="16px" fill="#000000" text-anchor="start" style="white-space: pre;" direction="ltr">Task2</text></g></svg>