<?xml version="1.0" encoding="UTF-8" standalone="no"?>
<svg
   xmlns:osb="http://www.openswatchbook.org/uri/2009/osb"
   xmlns:dc="http://purl.org/dc/elements/1.1/"
   xmlns:cc="http://creativecommons.org/ns#"
   xmlns:rdf="http://www.w3.org/1999/02/22-rdf-syntax-ns#"
   xmlns:svg="http://www.w3.org/2000/svg"
   xmlns="http://www.w3.org/2000/svg"
   width="263.29654mm"
   height="74.615074mm"
   viewBox="0 0 263.29653 74.615076"
   version="1.1"
   id="svg8">
  <defs
     id="defs2">
    <marker
       style="overflow:visible"
       id="marker4019"
       refX="0"
       refY="0"
       orient="auto">
      <path
         transform="matrix(-0.8,0,0,-0.8,-10,0)"
         style="fill:#000000;fill-opacity:1;fill-rule:evenodd;stroke:#000000;stroke-width:1.00000003pt;stroke-opacity:1"
         d="M 0,0 5,-5 -12.5,0 5,5 Z"
         id="path4017" />
    </marker>
    <marker
       style="overflow:visible"
       id="marker3843"
       refX="0"
       refY="0"
       orient="auto">
      <path
         transform="matrix(-0.8,0,0,-0.8,-10,0)"
         style="fill:#000000;fill-opacity:1;fill-rule:evenodd;stroke:#000000;stroke-width:1.00000003pt;stroke-opacity:1"
         d="M 0,0 5,-5 -12.5,0 5,5 Z"
         id="path3841" />
    </marker>
    <marker
       style="overflow:visible"
       id="marker3595"
       refX="0"
       refY="0"
       orient="auto">
      <path
         transform="matrix(0.4,0,0,0.4,4,0)"
         style="fill:#000000;fill-opacity:1;fill-rule:evenodd;stroke:#000000;stroke-width:1.00000003pt;stroke-opacity:1"
         d="M 0,0 5,-5 -12.5,0 5,5 Z"
         id="path3593" />
    </marker>
    <marker
       style="overflow:visible"
       id="marker3413"
       refX="0"
       refY="0"
       orient="auto">
      <path
         transform="matrix(0.4,0,0,0.4,4,0)"
         style="fill:#000000;fill-opacity:1;fill-rule:evenodd;stroke:#000000;stroke-width:1.00000003pt;stroke-opacity:1"
         d="M 0,0 5,-5 -12.5,0 5,5 Z"
         id="path3411" />
    </marker>
    <marker
       style="overflow:visible"
       id="marker3243"
       refX="0"
       refY="0"
       orient="auto">
      <path
         transform="matrix(0.4,0,0,0.4,4,0)"
         style="fill:#000000;fill-opacity:1;fill-rule:evenodd;stroke:#000000;stroke-width:1.00000003pt;stroke-opacity:1"
         d="M 0,0 5,-5 -12.5,0 5,5 Z"
         id="path3241" />
    </marker>
    <marker
       orient="auto"
       refY="0"
       refX="0"
       id="marker2952"
       style="overflow:visible">
      <path
         id="path2950"
         d="M 0,0 5,-5 -12.5,0 5,5 Z"
         style="fill:#00000a;fill-opacity:1;fill-rule:evenodd;stroke:#00000a;stroke-width:1.00000003pt;stroke-opacity:1"
         transform="matrix(0.8,0,0,0.8,10,0)" />
    </marker>
    <marker
       orient="auto"
       refY="0"
       refX="0"
       id="marker2638"
       style="overflow:visible">
      <path
         id="path2636"
         d="M 0,0 5,-5 -12.5,0 5,5 Z"
         style="fill:#00000a;fill-opacity:1;fill-rule:evenodd;stroke:#00000a;stroke-width:1.00000003pt;stroke-opacity:1"
         transform="matrix(0.8,0,0,0.8,10,0)" />
    </marker>
    <marker
       orient="auto"
       refY="0"
       refX="0"
       id="marker1294"
       style="overflow:visible">
      <path
         id="path1025"
         d="M 0,0 5,-5 -12.5,0 5,5 Z"
         style="fill:#00000a;fill-opacity:1;fill-rule:evenodd;stroke:#00000a;stroke-width:1.00000003pt;stroke-opacity:1"
         transform="matrix(0.8,0,0,0.8,10,0)" />
    </marker>
    <marker
       orient="auto"
       refY="0"
       refX="0"
       id="Arrow1Lend"
       style="overflow:visible">
      <path
         id="path1028"
         d="M 0,0 5,-5 -12.5,0 5,5 Z"
         style="fill:#000000;fill-opacity:1;fill-rule:evenodd;stroke:#000000;stroke-width:1.00000003pt;stroke-opacity:1"
         transform="matrix(-0.8,0,0,-0.8,-10,0)" />
    </marker>
    <marker
       orient="auto"
       refY="0"
       refX="0"
       id="marker9680"
       style="overflow:visible">
      <path
         id="path9678"
         d="M 0,0 5,-5 -12.5,0 5,5 Z"
         style="fill:#000000;fill-opacity:1;fill-rule:evenodd;stroke:#000000;stroke-width:1.00000003pt;stroke-opacity:1"
         transform="matrix(0.8,0,0,0.8,10,0)" />
    </marker>
    <linearGradient
       id="linearGradient9021"
       osb:paint="solid">
      <stop
         style="stop-color:#000000;stop-opacity:1;"
         offset="0"
         id="stop9019" />
    </linearGradient>
    <marker
       orient="auto"
       refY="0"
       refX="0"
       id="Arrow1Lstart"
       style="overflow:visible">
      <path
         id="path4520"
         d="M 0,0 5,-5 -12.5,0 5,5 Z"
         style="fill:url(#meshgradient7337);fill-opacity:1;fill-rule:evenodd;stroke:#000000;stroke-width:1.00000003pt;stroke-opacity:1"
         transform="matrix(0.8,0,0,0.8,10,0)" />
    </marker>
    <style
       id="style5695">
      @font-face {
        font-family: &quot;Virgil&quot;;
        src: url(&quot;https://excalidraw.com/Virgil.woff2&quot;);
      }
      @font-face {
        font-family: &quot;Cascadia&quot;;
        src: url(&quot;https://excalidraw.com/Cascadia.woff2&quot;);
      }
    </style>
    <meshgradient
       id="meshgradient7337"
       gradientUnits="userSpaceOnUse"
       x="-2.9081161"
       y="68.131035">
      <meshrow
         id="meshrow7339">
        <meshpatch
           id="meshpatch7341">
          <stop
             path="c 8.50254,-8.50254  22.2879,-8.50254  30.7904,0"
             style="stop-color:#ffffff;stop-opacity:1"
             id="stop7343" />
          <stop
             path="c 8.50254,8.50254  8.50254,22.2879  0,30.7904"
             style="stop-color:#800080;stop-opacity:1"
             id="stop7345" />
          <stop
             path="c -8.50254,8.50254  -22.2879,8.50254  -30.7904,0"
             style="stop-color:#ffffff;stop-opacity:1"
             id="stop7347" />
          <stop
             path="c -8.50254,-8.50254  -8.50254,-22.2879  -5.32907e-15,-30.7904"
             style="stop-color:#800080;stop-opacity:1"
             id="stop7349" />
        </meshpatch>
      </meshrow>
    </meshgradient>
  </defs>
  <metadata
     id="metadata5">
    <rdf:RDF>
      <cc:Work
         rdf:about="">
        <dc:format>image/svg+xml</dc:format>
        <dc:type
           rdf:resource="http://purl.org/dc/dcmitype/StillImage" />
        <dc:title></dc:title>
      </cc:Work>
    </rdf:RDF>
  </metadata>
  <g
     id="layer1"
     transform="translate(-25.3256,-60.217351)">
    <g
       id="g5838"
       transform="matrix(0.26458333,0,0,0.26458333,31.30406,26.440346)">
      <g
         id="g5701"
         transform="translate(10,208.1629)"
         style="stroke-linecap:round">
        <path
           id="path5699"
           d="M 0,0 C 187.25,0 374.51,0 614.58,0 M 0,0 c 239.41,0 478.82,0 614.58,0 m 0,0 c 0,10.3 0,20.59 0,42.5 m 0,-42.5 c 0,12.89 0,25.77 0,42.5 m 0,0 c -170.96,0 -341.91,0 -614.58,0 m 614.58,0 c -198.05,0 -396.09,0 -614.58,0 m 0,0 C 0,26.89 0,11.28 0,0 M 0,42.5 C 0,31.08 0,19.67 0,0"
           style="fill:none;stroke:#000000;stroke-width:1" />
      </g>
      <g
         id="g5707"
         style="stroke-linecap:round">
        <g
           id="g5705"
           transform="translate(133.59668,208.19321)">
          <path
             id="path5703"
             d="M 0,0 C 0.15,14.01 0.3,28.02 0.45,42.73 M 0,0 c 0.18,16.68 0.35,33.36 0.45,42.73"
             style="fill:none;stroke:#000000;stroke-width:1" />
        </g>
      </g>
      <g
         id="g5713"
         style="stroke-linecap:round">
        <g
           id="g5711"
           transform="translate(255.11183,208.19321)">
          <path
             id="path5709"
             d="M 0,0 C 0.14,13.23 0.28,26.46 0.45,42.73 M 0,0 c 0.1,9.74 0.21,19.49 0.45,42.73"
             style="fill:none;stroke:#000000;stroke-width:1" />
        </g>
      </g>
      <g
         id="g5719"
         style="stroke-linecap:round">
        <g
           id="g5717"
           transform="translate(378.82781,208.44488)">
          <path
             id="path5715"
             d="M 0,0 C 0.18,16.79 0.36,33.57 0.45,42.73 M 0,0 c 0.13,12.64 0.27,25.27 0.45,42.73"
             style="fill:none;stroke:#000000;stroke-width:1" />
        </g>
      </g>
      <g
         id="g5723"
         transform="translate(50.996522,219.95659)">
        <text
           id="text5721"
           direction="ltr"
           style="font-size:16px;font-family:Virgil, 'Segoe UI Emoji';direction:ltr;text-anchor:start;white-space:pre;fill:#000000"
           font-size="16px"
           y="14"
           x="0">Task1</text>
      </g>
      <g
         id="g5727"
         transform="translate(167.92076,219.9869)">
        <text
           id="text5725"
           direction="ltr"
           style="font-size:16px;font-family:Virgil, 'Segoe UI Emoji';direction:ltr;text-anchor:start;white-space:pre;fill:#000000"
           font-size="16px"
           y="14"
           x="0">Task4</text>
      </g>
      <g
         id="g5731"
         transform="translate(290.98137,219.38084)">
        <text
           id="text5729"
           direction="ltr"
           style="font-size:16px;font-family:Virgil, 'Segoe UI Emoji';direction:ltr;text-anchor:start;white-space:pre;fill:#000000"
           font-size="16px"
           y="14"
           x="0">Task2</text>
      </g>
      <g
         id="g5737"
         style="stroke-linecap:round">
        <g
           id="g5735"
           transform="translate(501.93955,208.49061)">
          <path
             id="path5733"
             d="M 0,0 C 0.15,14.45 0.31,28.9 0.45,42.73 M 0,0 c 0.17,15.67 0.33,31.33 0.45,42.73"
             style="fill:none;stroke:#000000;stroke-width:1" />
        </g>
      </g>
      <g
         id="g5741"
         transform="translate(414.09311,219.42657)">
        <text
           id="text5739"
           direction="ltr"
           style="font-size:16px;font-family:Virgil, 'Segoe UI Emoji';direction:ltr;text-anchor:start;white-space:pre;fill:#000000"
           font-size="16px"
           y="14"
           x="0">Task10</text>
      </g>
      <g
         id="g5745"
         transform="translate(558.78475,218.60257)">
        <text
           id="text5743"
           direction="ltr"
           style="font-size:16px;font-family:Virgil, 'Segoe UI Emoji';direction:ltr;text-anchor:start;white-space:pre;fill:#000000"
           font-size="16px"
           y="14"
           x="0">....</text>
      </g>
    </g>
    <text
       xml:space="preserve"
       style="font-style:normal;font-weight:normal;font-size:5.64444447px;line-height:1.25;font-family:sans-serif;letter-spacing:0px;word-spacing:0px;fill:#000000;fill-opacity:1;stroke:none;stroke-width:0.26458332"
       x="45.772694"
       y="106.4285"
       id="text7030"><tspan
         id="tspan7028"
         x="45.772694"
         y="106.4285"
         style="text-align:center;text-anchor:middle;stroke-width:0.26458332">The &quot;One&quot;</tspan><tspan
         x="45.772694"
         y="113.48406"
         style="text-align:center;text-anchor:middle;stroke-width:0.26458332"
         id="tspan4203"> Thread</tspan><tspan
         x="45.772694"
         y="120.53963"
         style="stroke-width:0.26458332"
         id="tspan4191" /><tspan
         x="45.772694"
         y="127.59518"
         style="stroke-width:0.26458332"
         id="tspan7032" /></text>
    <text
       xml:space="preserve"
       style="font-style:normal;font-weight:normal;font-size:5.64444447px;line-height:1.25;font-family:sans-serif;letter-spacing:0px;word-spacing:0px;fill:#000000;fill-opacity:1;stroke:none;stroke-width:0.26458332"
       x="51.965485"
       y="79.157822"
       id="text7042"><tspan
         id="tspan7040"
         x="51.965485"
         y="79.157822"
         style="stroke-width:0.26458332">shared data structure</tspan></text>
    <g
       id="g4324">
      <path
         style="color:#000000;font-style:normal;font-variant:normal;font-weight:normal;font-stretch:normal;font-size:medium;line-height:normal;font-family:sans-serif;font-variant-ligatures:normal;font-variant-position:normal;font-variant-caps:normal;font-variant-numeric:normal;font-variant-alternates:normal;font-feature-settings:normal;text-indent:0;text-align:start;text-decoration:none;text-decoration-line:none;text-decoration-style:solid;text-decoration-color:#000000;letter-spacing:normal;word-spacing:normal;text-transform:none;writing-mode:lr-tb;direction:ltr;text-orientation:mixed;dominant-baseline:auto;baseline-shift:baseline;text-anchor:start;white-space:normal;shape-padding:0;clip-rule:nonzero;display:inline;overflow:visible;visibility:visible;opacity:1;isolation:auto;mix-blend-mode:normal;color-interpolation:sRGB;color-interpolation-filters:linearRGB;solid-color:#000000;solid-opacity:1;vector-effect:none;fill:#00000a;fill-opacity:1;fill-rule:nonzero;stroke:none;stroke-width:0.57499999;stroke-linecap:butt;stroke-linejoin:round;stroke-miterlimit:3.29999995;stroke-dasharray:none;stroke-dashoffset:0;stroke-opacity:1;paint-order:normal;color-rendering:auto;image-rendering:auto;shape-rendering:auto;text-rendering:auto;enable-background:accumulate"
         d="m 46.447266,93.759766 c -11.014572,0 -19.949219,8.936604 -19.949219,19.951174 0,11.01457 8.934647,19.94922 19.949219,19.94922 11.014571,0 19.951172,-8.93465 19.951172,-19.94922 0,-11.01457 -8.936601,-19.951174 -19.951172,-19.951174 z m 0,0.576172 c 10.703818,0 19.375,8.671182 19.375,19.375002 0,10.70382 -8.671182,19.37304 -19.375,19.37304 -10.703819,0 -19.375,-8.66922 -19.375,-19.37304 0,-10.70382 8.671181,-19.375002 19.375,-19.375002 z"
         id="path1291" />
      <path
         style="fill:#00000a;fill-opacity:1;fill-rule:evenodd;stroke:#00000a;stroke-width:0.23pt;stroke-opacity:1"
         d="m 66.110218,116.01011 1.15,1.15 -1.15,-4.025 -1.15,4.025 z"
         id="path4330" />
      <path
         style="fill:#00000a;fill-opacity:1;fill-rule:evenodd;stroke:#00000a;stroke-width:0.23pt;stroke-opacity:1"
         d="m 44.147907,133.37243 -1.15,1.15 4.024999,-1.15 -4.024999,-1.15 z"
         id="path4332" />
      <path
         style="fill:#00000a;fill-opacity:1;fill-rule:evenodd;stroke:#00000a;stroke-width:0.23pt;stroke-opacity:1"
         d="m 26.785595,111.41011 -1.15,-1.15 1.15,4.025 1.15,-4.025 z"
         id="path4334" />
      <path
         style="fill:#00000a;fill-opacity:1;fill-rule:evenodd;stroke:#00000a;stroke-width:0.23pt;stroke-opacity:1"
         d="m 48.747906,94.047802 1.15,-1.15 -4.024999,1.15 4.024999,1.15 z"
         id="path4336" />
    </g>
    <path
       style="fill:none;stroke:#000000;stroke-width:0.22739901px;stroke-linecap:butt;stroke-linejoin:miter;stroke-opacity:1"
       d="M 203.30576,68.813802 V 123.6979"
       id="path3186" />
    <text
       xml:space="preserve"
       style="font-style:normal;font-weight:normal;font-size:5.64444447px;line-height:1.25;font-family:sans-serif;letter-spacing:0px;word-spacing:0px;fill:#000000;fill-opacity:1;stroke:none;stroke-width:0.26458332"
       x="26.520397"
       y="64.505806"
       id="text3190"><tspan
         id="tspan3188"
         x="26.520397"
         y="64.505806"
         style="font-size:5.64444447px;stroke-width:0.26458332">val timer = new Timer()</tspan></text>
    <text
       xml:space="preserve"
       style="font-style:normal;font-weight:normal;font-size:5.64444447px;line-height:1.25;font-family:sans-serif;letter-spacing:0px;word-spacing:0px;fill:#000000;fill-opacity:1;stroke:none;stroke-width:0.26458332"
       x="205.14656"
       y="77.105461"
       id="text3194"><tspan
         id="tspan3192"
         x="205.14656"
         y="77.105461"
         style="stroke-width:0.26458332">[thread-1]</tspan><tspan
         x="205.14656"
         y="84.161018"
         style="stroke-width:0.26458332"
         id="tspan3196">timer.schedule(&lt;Task3&gt;, ...)</tspan></text>
    <text
       xml:space="preserve"
       style="font-style:normal;font-weight:normal;font-size:5.64444447px;line-height:1.25;font-family:sans-serif;letter-spacing:0px;word-spacing:0px;fill:#000000;fill-opacity:1;stroke:none;stroke-width:0.26458332"
       x="205.2646"
       y="93.791435"
       id="text3194-3"><tspan
         id="tspan3192-6"
         x="205.2646"
         y="93.791435"
         style="stroke-width:0.26458332">[thread-2]</tspan><tspan
         x="205.2646"
         y="100.84699"
         style="stroke-width:0.26458332"
         id="tspan3196-7">timer.schedule(&lt;Task7&gt;, ...)</tspan><tspan
         x="205.2646"
         y="107.90255"
         style="stroke-width:0.26458332"
         id="tspan3219">timer.schedule(&lt;Task11&gt;, ...)</tspan></text>
    <path
       style="fill:none;stroke:#000000;stroke-width:0.28954005;stroke-linecap:butt;stroke-linejoin:miter;stroke-miterlimit:4;stroke-dasharray:0.28954005, 0.28954005;stroke-dashoffset:0;stroke-opacity:1"
       d="m 203.72945,87.018997 81.2667,0.376844"
       id="path3221" />
    <path
       style="fill:none;stroke:#000000;stroke-width:0.25853765px;stroke-linecap:butt;stroke-linejoin:miter;stroke-opacity:1;marker-end:url(#marker3843)"
       d="m 205.16506,82.912327 -7.73693,1.24052"
       id="path3223" />
    <path
       style="fill:none;stroke:#000000;stroke-width:0.26458332px;stroke-linecap:butt;stroke-linejoin:miter;stroke-opacity:1;marker-end:url(#Arrow1Lend)"
       d="m 204.83049,99.486021 c -0.13363,-0.133635 -7.14946,-9.387842 -7.14946,-9.387842"
       id="path3225" />
    <path
       style="fill:none;stroke:#000000;stroke-width:0.26499999;stroke-linecap:butt;stroke-linejoin:miter;stroke-miterlimit:4;stroke-dasharray:none;stroke-opacity:1;marker-end:url(#marker4019)"
       d="M 204.67491,106.80252 194.48526,93.606091"
       id="path3227" />
    <text
       xml:space="preserve"
       style="font-style:normal;font-weight:normal;font-size:5.64444447px;line-height:1.25;font-family:sans-serif;letter-spacing:0px;word-spacing:0px;fill:#000000;fill-opacity:1;stroke:none;stroke-width:0.26458332"
       x="202.02946"
       y="66.040749"
       id="text4189"><tspan
         id="tspan4187"
         x="202.02946"
         y="66.040749"
         style="stroke-width:0.26458332">&quot;Clients&quot;</tspan></text>
    <text
       id="text1318"
       y="116.02833"
       x="205.16725"
       style="font-style:normal;font-weight:normal;font-size:5.64444447px;line-height:1.25;font-family:sans-serif;letter-spacing:0px;word-spacing:0px;fill:#000000;fill-opacity:1;stroke:none;stroke-width:0.26458332"
       xml:space="preserve"><tspan
         y="116.02833"
         x="205.16725"
         id="tspan1324">[thread-3]</tspan><tspan
         id="tspan1326"
         y="123.08389"
         x="205.16725">timer.cancel()</tspan></text>
    <path
       style="fill:none;stroke:#000000;stroke-width:0.28954005;stroke-linecap:butt;stroke-linejoin:miter;stroke-miterlimit:4;stroke-dasharray:0.28954005, 0.28954005;stroke-dashoffset:0;stroke-opacity:1"
       d="m 204.2492,110.63394 81.2667,0.37684"
       id="path3221-0" />
    <g
       transform="matrix(0.05217436,0,0,0.05217436,245.7169,117.33586)"
       id="g1408">
      <polygon
         points="64,20.03 118.41,114.26 9.6,114.26 "
         style="fill:#fcc21b"
         id="polygon1398" />
      <g
         id="g1406">
        <path
           d="M 127.07,115.93 66.89,11.7 c -0.6,-1.03 -1.7,-1.67 -2.89,-1.67 -1.19,0 -2.29,0.64 -2.88,1.67 L 0.93,115.93 c -0.6,1.03 -0.6,2.3 0,3.34 0.6,1.03 1.7,1.66 2.89,1.66 h 120.36 c 1.19,0 2.29,-0.63 2.89,-1.66 0.59,-1.04 0.59,-2.31 0,-3.34 z M 9.6,114.26 64,20.03 l 54.41,94.23 z"
           style="fill:#2f2f2f"
           id="path1400" />
        <path
           d="m 59.12,83.21 h 9.76 c 0.36,0 0.65,-0.23 0.67,-0.53 l 2.66,-38.27 c 0.01,-0.16 -0.05,-0.3 -0.18,-0.42 -0.12,-0.11 -0.3,-0.18 -0.49,-0.18 H 56.46 c -0.19,0 -0.37,0.07 -0.49,0.18 -0.12,0.12 -0.19,0.26 -0.18,0.42 l 2.67,38.27 c 0.01,0.29 0.3,0.53 0.66,0.53 z"
           style="fill:#2f2f2f"
           id="path1402" />
        <path
           d="m 56.11,103.32 c 0,-1.41 0.2,-2.6 0.61,-3.57 0.4,-0.98 0.96,-1.77 1.68,-2.37 0.72,-0.6 1.56,-1.04 2.54,-1.31 0.97,-0.27 2.01,-0.41 3.13,-0.41 1.05,0 2.05,0.14 3,0.41 0.95,0.27 1.78,0.71 2.49,1.31 0.72,0.6 1.29,1.38 1.71,2.37 0.42,0.97 0.63,2.16 0.63,3.57 0,1.35 -0.21,2.51 -0.63,3.46 -0.42,0.96 -0.99,1.76 -1.71,2.39 -0.71,0.63 -1.54,1.09 -2.49,1.37 -0.95,0.28 -1.95,0.43 -3,0.43 -1.11,0 -2.15,-0.14 -3.13,-0.43 -0.98,-0.29 -1.82,-0.74 -2.54,-1.37 -0.72,-0.63 -1.29,-1.42 -1.68,-2.39 -0.41,-0.96 -0.61,-2.11 -0.61,-3.46 z"
           style="fill:#2f2f2f"
           id="path1404" />
      </g>
    </g>
    <text
       id="text918"
       y="121.4934"
       x="31.285589"
       style="font-style:normal;font-weight:normal;font-size:5.64444447px;line-height:1.25;font-family:sans-serif;letter-spacing:0px;word-spacing:0px;fill:#000000;fill-opacity:1;stroke:none;stroke-width:0.26458332"
       xml:space="preserve"><tspan
         style="font-size:4.23333311px;stroke-width:0.26458332"
         y="121.4934"
         x="31.285589"
         id="tspan916">Task5 running</tspan></text>
  </g>
</svg>
